<?xml version="1.0" encoding="utf-8"?>
<!-- Generator: Adobe Illustrator 16.0.0, SVG Export Plug-In . SVG Version: 6.00 Build 0)  -->
<!DOCTYPE svg PUBLIC "-//W3C//DTD SVG 1.1//EN" "http://www.w3.org/Graphics/SVG/1.1/DTD/svg11.dtd">
<svg version="1.1" id="Layer_1" xmlns="http://www.w3.org/2000/svg" xmlns:xlink="http://www.w3.org/1999/xlink" x="0px" y="0px"
	 width="22px" height="22px" viewBox="0 0 22 22" enable-background="new 0 0 22 22" xml:space="preserve">
<g>
	<path fill="#fff" d="M11,0C4.925,0,0,4.925,0,11s4.925,11,11,11s11-4.925,11-11S17.075,0,11,0z M11,20c-4.962,0-9-4.038-9-9
		s4.038-9,9-9s9,4.038,9,9S15.962,20,11,20z"/>
	<polygon fill="#fff" points="12,7 10,7 10,10 7,10 7,12 10,12 10,15 12,15 12,12 15,12 15,10 12,10 	"/>
</g>
</svg>
