<?xml version="1.0" encoding="utf-8"?>
<!-- Generator: Adobe Illustrator 16.0.0, SVG Export Plug-In . SVG Version: 6.00 Build 0)  -->
<!DOCTYPE svg PUBLIC "-//W3C//DTD SVG 1.1//EN" "http://www.w3.org/Graphics/SVG/1.1/DTD/svg11.dtd">
<svg version="1.1" id="Layer_1" xmlns="http://www.w3.org/2000/svg" xmlns:xlink="http://www.w3.org/1999/xlink" x="0px" y="0px"
	 width="23.623px" height="23.563px" viewBox="0 0 23.623 23.563" enable-background="new 0 0 23.623 23.563" xml:space="preserve">
<g>
	<path fill="#020202" d="M11.666,0.683c-6.075,0-11,4.925-11,11s4.925,11,11,11s11-4.925,11-11S17.741,0.683,11.666,0.683z
		 M11.666,20.683c-4.962,0-9-4.038-9-9s4.038-9,9-9s9,4.038,9,9S16.628,20.683,11.666,20.683z"/>
	<polygon fill="#020202" points="12.666,7.683 10.666,7.683 10.666,10.683 7.666,10.683 7.666,12.683 10.666,12.683 10.666,15.683 
		12.666,15.683 12.666,12.683 15.666,12.683 15.666,10.683 12.666,10.683 	"/>
</g>
</svg>
