<?xml version="1.0" encoding="utf-8"?>
<!-- Generator: Adobe Illustrator 16.0.0, SVG Export Plug-In . SVG Version: 6.00 Build 0)  -->
<!DOCTYPE svg PUBLIC "-//W3C//DTD SVG 1.1 Tiny//EN" "http://www.w3.org/Graphics/SVG/1.1/DTD/svg11-tiny.dtd">
<svg version="1.1" baseProfile="tiny" id="Layer_1" xmlns="http://www.w3.org/2000/svg" xmlns:xlink="http://www.w3.org/1999/xlink"
	 x="0px" y="0px" width="11px" height="13px" viewBox="0 0 11 13" xml:space="preserve">
<path fill="#FFFFFF" d="M4.981,0.294C5.124,0.15,5.317,0.073,5.503,0.073c0.187,0,0.378,0.071,0.521,0.221l4.709,4.737
	c0.291,0.292,0.291,0.762,0,1.054c-0.293,0.292-0.758,0.292-1.049,0L6.244,2.618v9.565c0,0.412-0.33,0.743-0.741,0.743
	c-0.412,0-0.741-0.331-0.741-0.743V2.618L1.316,6.085c-0.291,0.292-0.758,0.292-1.048,0s-0.291-0.762,0-1.054L4.981,0.294z"/>
</svg>
