<?xml version="1.0" encoding="utf-8"?>
<!-- Generator: Adobe Illustrator 16.0.0, SVG Export Plug-In . SVG Version: 6.00 Build 0)  -->
<!DOCTYPE svg PUBLIC "-//W3C//DTD SVG 1.1 Tiny//EN" "http://www.w3.org/Graphics/SVG/1.1/DTD/svg11-tiny.dtd">
<svg version="1.1" baseProfile="tiny" id="Layer_1" xmlns="http://www.w3.org/2000/svg" xmlns:xlink="http://www.w3.org/1999/xlink"
	 x="0px" y="0px" width="60px" height="52px" viewBox="0 0 60 52" xml:space="preserve">
<path fill="#cef0e5" d="M56.162,6.693H39.717V4.37c0-2.29-1.876-4.153-4.186-4.153H24.469c-2.308,0-4.186,1.863-4.186,4.153v2.323H3.838
	c-1.979,0-3.588,1.597-3.588,3.56v14.536c0,1.187,0.593,2.232,1.495,2.879v20.556c0,1.962,1.61,3.56,3.588,3.56h49.335
	c1.978,0,3.587-1.598,3.587-3.56V27.668c0.902-0.647,1.495-1.693,1.495-2.879V10.253C59.75,8.29,58.141,6.693,56.162,6.693z
	 M23.871,4.37c0-0.327,0.269-0.593,0.598-0.593h11.063c0.33,0,0.598,0.266,0.598,0.593v2.323H23.871L23.871,4.37L23.871,4.37z
	 M55.862,48.224c0,0.654-0.535,1.188-1.194,1.188H5.333c-0.661,0-1.196-0.533-1.196-1.188V28.349h19.921v1.892h0.787v4.931
	c0,1.31,1.07,2.373,2.392,2.373h5.381c1.32,0,2.393-1.063,2.393-2.373V30.24h0.932v-1.892h19.919L55.862,48.224L55.862,48.224
	L55.862,48.224z M57.358,24.789c0,0.485-0.297,0.901-0.721,1.085l-0.025,0.011c-0.14,0.057-0.29,0.09-0.45,0.09H3.838
	c-0.16,0-0.312-0.033-0.451-0.09l-0.025-0.011c-0.423-0.183-0.721-0.599-0.721-1.085V10.253c0-0.654,0.536-1.187,1.195-1.187h52.325
	c0.66,0,1.196,0.533,1.196,1.187L57.358,24.789L57.358,24.789L57.358,24.789z"/>
</svg>
