<?xml version="1.0" encoding="utf-8"?>
<!-- Generator: Adobe Illustrator 16.0.0, SVG Export Plug-In . SVG Version: 6.00 Build 0)  -->
<!DOCTYPE svg PUBLIC "-//W3C//DTD SVG 1.1 Tiny//EN" "http://www.w3.org/Graphics/SVG/1.1/DTD/svg11-tiny.dtd">
<svg version="1.1" baseProfile="tiny" id="Layer_1" xmlns="http://www.w3.org/2000/svg" xmlns:xlink="http://www.w3.org/1999/xlink"
	 x="0px" y="0px" width="26px" height="26px" viewBox="0 0 26 26" xml:space="preserve">
<g>
	<g>
		<path fill="#FFFFFF" d="M3.78,25.302c-1.698,0-3.08-1.382-3.08-3.081V3.78C0.7,2.082,2.082,0.7,3.78,0.7h18.44
			c1.698,0,3.079,1.382,3.079,3.081v18.44c0,1.698-1.381,3.079-3.079,3.079L3.78,25.302z"/>
		<path fill="#AFAFAF" d="M22.221,1.2c1.422,0,2.579,1.158,2.579,2.581v18.44c0,1.422-1.157,2.579-2.579,2.579H3.78H3.684
			C2.306,24.749,1.2,23.611,1.2,22.221V3.78C1.2,2.357,2.357,1.2,3.78,1.2H22.221 M22.221,0.2H3.78C1.807,0.2,0.2,1.805,0.2,3.78
			v18.44c0,1.973,1.605,3.581,3.58,3.581V25.8h18.44c1.972,0,3.579-1.607,3.579-3.579V3.78C25.8,1.805,24.192,0.2,22.221,0.2
			L22.221,0.2z"/>
	</g>
</g>
</svg>
