<?xml version="1.0" encoding="utf-8"?>
<!-- Generator: Adobe Illustrator 16.0.0, SVG Export Plug-In . SVG Version: 6.00 Build 0)  -->
<!DOCTYPE svg PUBLIC "-//W3C//DTD SVG 1.1 Tiny//EN" "http://www.w3.org/Graphics/SVG/1.1/DTD/svg11-tiny.dtd">
<svg version="1.1" baseProfile="tiny" id="Layer_1" xmlns="http://www.w3.org/2000/svg" xmlns:xlink="http://www.w3.org/1999/xlink"
	 x="0px" y="0px" width="26px" height="26px" viewBox="0 0 26 26" xml:space="preserve">
<g>
	<g>
		<path fill="#34B893" stroke="#2AA381" stroke-miterlimit="10" d="M3.78,25.302c-1.698,0-3.08-1.382-3.08-3.081V3.78
			c0-1.698,1.382-3.08,3.08-3.08h18.441c1.697,0,3.078,1.382,3.078,3.081v18.439c0,1.698-1.381,3.079-3.078,3.079L3.78,25.302z"/>
	</g>
</g>
<path fill="#FFFFFF" d="M20.302,9.035l-0.648-0.651c-0.268-0.269-0.703-0.269-0.973,0l-6.799,6.833l-3.562-3.578
	c-0.267-0.269-0.703-0.269-0.973,0L6.698,12.29c-0.267,0.269-0.267,0.707,0,0.978l4.694,4.716c0.135,0.136,0.308,0.204,0.484,0.204
	s0.352-0.068,0.484-0.204l7.934-7.971C20.569,9.739,20.569,9.304,20.302,9.035z"/>
</svg>
