<?xml version="1.0" encoding="utf-8"?>
<!-- Generator: Adobe Illustrator 16.0.0, SVG Export Plug-In . SVG Version: 6.00 Build 0)  -->
<!DOCTYPE svg PUBLIC "-//W3C//DTD SVG 1.1 Tiny//EN" "http://www.w3.org/Graphics/SVG/1.1/DTD/svg11-tiny.dtd">
<svg version="1.1" baseProfile="tiny" id="Layer_1" xmlns="http://www.w3.org/2000/svg" xmlns:xlink="http://www.w3.org/1999/xlink"
	 x="0px" y="0px" width="24px" height="24px" viewBox="0 0 24 24" xml:space="preserve">
<g>
	<path fill="#808080" d="M12,23C5.935,23,1,18.065,1,12s4.935-11,11-11s11,4.935,11,11S18.065,23,12,23z"/>
	<path fill="#FFFFFF" d="M12,1.999c5.514,0,10,4.486,10,10s-4.486,10-10,10C6.486,22,2,17.514,2,12S6.486,1.999,12,1.999 M12-0.001
		c-6.627,0-12,5.373-12,12c0,6.627,5.373,12,12,12c6.629,0,12-5.373,12-12C24,5.372,18.629-0.001,12-0.001L12-0.001z"/>
</g>
<g>
	<path fill="#FFFFFF" d="M8.496,16.342l-0.838-0.838L11.162,12L7.658,8.495l0.838-0.838L12,11.162l3.504-3.505l0.838,0.838
		L12.837,12l3.504,3.504l-0.838,0.838L12,12.837L8.496,16.342z"/>
</g>
</svg>
