<?xml version="1.0" encoding="utf-8"?>
<!-- Generator: Adobe Illustrator 16.0.0, SVG Export Plug-In . SVG Version: 6.00 Build 0)  -->
<!DOCTYPE svg PUBLIC "-//W3C//DTD SVG 1.1//EN" "http://www.w3.org/Graphics/SVG/1.1/DTD/svg11.dtd">
<svg version="1.1" id="Layer_1" xmlns="http://www.w3.org/2000/svg" xmlns:xlink="http://www.w3.org/1999/xlink" x="0px" y="0px"
	 width="255px" height="107px" viewBox="0 0 255 107" enable-background="new 0 0 255 107" xml:space="preserve">
<path fill-rule="evenodd" clip-rule="evenodd" fill="#0BA082" d="M25.81,20.551c-4.537,0-8.216-3.705-8.216-8.275S21.272,4,25.81,4
	c4.538,0,8.216,3.705,8.216,8.275S30.348,20.551,25.81,20.551z M58.37,20.551c-4.537,0-8.216-3.705-8.216-8.275S53.833,4,58.37,4
	s8.216,3.705,8.216,8.275S62.907,20.551,58.37,20.551z M78.314,72.042c-0.089,2.205-1.86,3.966-4.038,3.966
	c-2.235,0-4.047-1.854-4.047-4.139c0-0.33,0.042-0.65,0.113-0.959V45.58c0-6.686-5.272-12.105-11.776-12.105
	c-6.505,0-11.777,5.42-11.777,12.105v26.462c-0.022,0-0.046,0-0.069,0c-0.188,2.222-2.009,3.966-4.23,3.966s-4.042-1.744-4.23-3.966
	c-0.023,0-0.046,0-0.069,0V45.58c0-6.686-5.272-12.105-11.777-12.105c-6.504,0-11.776,5.42-11.776,12.105v25.33
	c0.071,0.309,0.113,0.629,0.113,0.959c0,2.285-1.812,4.139-4.047,4.139c-2.178,0-3.949-1.761-4.038-3.966c-0.006,0-0.009,0-0.009,0
	V44.7c0-11.216,8.846-20.308,19.757-20.308c6.631,0,12.493,3.36,16.077,8.511c3.584-5.15,9.446-8.511,16.077-8.511
	c10.911,0,19.757,9.092,19.757,20.308v27.342C78.323,72.042,78.32,72.042,78.314,72.042z"/>
<g>
	<path fill="#0BA082" d="M5.18,85.678l4.184,10.441l4.184-10.441h2.188v12.797h-1.688v-4.983l0.158-5.379l-4.201,10.362H8.713
		L4.521,88.139l0.167,5.353v4.983H3V85.678H5.18z"/>
	<path fill="#0BA082" d="M18.649,86.442c0-0.264,0.081-0.486,0.242-0.668s0.4-0.272,0.716-0.272s0.557,0.091,0.721,0.272
		s0.246,0.404,0.246,0.668s-0.082,0.483-0.246,0.659s-0.404,0.264-0.721,0.264s-0.555-0.088-0.716-0.264
		S18.649,86.706,18.649,86.442z M20.407,98.475h-1.626v-9.51h1.626V98.475z"/>
	<path fill="#0BA082" d="M24.726,88.965l0.053,1.195c0.727-0.914,1.676-1.371,2.848-1.371c2.01,0,3.023,1.134,3.041,3.401v6.284
		h-1.626v-6.293c-0.006-0.686-0.163-1.192-0.47-1.521s-0.787-0.492-1.437-0.492c-0.527,0-0.99,0.141-1.389,0.422
		s-0.709,0.65-0.932,1.107v6.776h-1.626v-9.51H24.726z"/>
	<path fill="#0BA082" d="M35.506,86.662v2.303h1.775v1.257h-1.775v5.905c0,0.381,0.079,0.667,0.237,0.857s0.428,0.286,0.809,0.286
		c0.188,0,0.445-0.035,0.773-0.105v1.311c-0.428,0.116-0.844,0.175-1.248,0.175c-0.727,0-1.274-0.22-1.644-0.659
		s-0.554-1.063-0.554-1.872v-5.897h-1.731v-1.257h1.731v-2.303H35.506z"/>
	<path fill="#0BA082" d="M41.794,85.678l4.183,10.441l4.184-10.441h2.189v12.797h-1.688v-4.983l0.158-5.379L46.62,98.475h-1.293
		l-4.192-10.336l0.167,5.353v4.983h-1.688V85.678H41.794z"/>
	<path fill="#0BA082" d="M59.2,98.65c-1.289,0-2.338-0.423-3.146-1.27s-1.213-1.979-1.213-3.397v-0.299
		c0-0.943,0.181-1.785,0.541-2.526s0.864-1.321,1.512-1.74s1.35-0.629,2.105-0.629c1.236,0,2.197,0.407,2.883,1.222
		s1.027,1.98,1.027,3.498v0.677h-6.441c0.023,0.938,0.297,1.695,0.821,2.271c0.524,0.578,1.19,0.866,1.999,0.866
		c0.574,0,1.061-0.117,1.459-0.352s0.748-0.545,1.047-0.932l0.992,0.773C61.989,98.038,60.794,98.65,59.2,98.65z M58.999,90.125
		c-0.656,0-1.207,0.239-1.652,0.717s-0.721,1.146-0.826,2.008h4.764v-0.123c-0.047-0.826-0.27-1.466-0.668-1.92
		S59.679,90.125,58.999,90.125z"/>
	<path fill="#0BA082" d="M70.508,95.952c0-0.439-0.165-0.78-0.497-1.024c-0.33-0.242-0.908-0.452-1.73-0.628
		c-0.824-0.176-1.477-0.387-1.961-0.633c-0.482-0.246-0.84-0.539-1.072-0.879c-0.23-0.34-0.347-0.744-0.347-1.213
		c0-0.779,0.329-1.438,0.989-1.978c0.658-0.539,1.501-0.809,2.526-0.809c1.078,0,1.952,0.278,2.624,0.835
		c0.67,0.557,1.006,1.269,1.006,2.136h-1.635c0-0.445-0.189-0.829-0.566-1.151c-0.379-0.322-0.854-0.483-1.429-0.483
		c-0.592,0-1.055,0.129-1.389,0.387s-0.501,0.595-0.501,1.011c0,0.393,0.155,0.688,0.466,0.888s0.872,0.39,1.683,0.571
		c0.812,0.182,1.47,0.398,1.974,0.65s0.878,0.556,1.12,0.909c0.244,0.355,0.365,0.787,0.365,1.297c0,0.85-0.34,1.531-1.02,2.043
		c-0.68,0.514-1.562,0.77-2.646,0.77c-0.762,0-1.436-0.135-2.021-0.404s-1.044-0.646-1.376-1.129
		c-0.33-0.484-0.496-1.007-0.496-1.569h1.626c0.029,0.545,0.247,0.978,0.655,1.296c0.406,0.32,0.944,0.479,1.612,0.479
		c0.615,0,1.108-0.124,1.481-0.374C70.321,96.701,70.508,96.368,70.508,95.952z"/>
	<path fill="#0BA082" d="M76.058,90.116c0.721-0.885,1.658-1.327,2.812-1.327c2.01,0,3.023,1.134,3.041,3.401v6.284h-1.626v-6.293
		c-0.006-0.686-0.163-1.192-0.47-1.521c-0.309-0.328-0.787-0.492-1.438-0.492c-0.527,0-0.99,0.141-1.389,0.422
		s-0.709,0.65-0.932,1.107v6.776h-1.626v-13.5h1.626V90.116z"/>
</g>
<g>
	<path fill="#0BA082" d="M105.147,53.588h-8.176v6.098h9.557v2.789H93.513V42.568h12.92v2.789h-9.461v5.496h8.176V53.588z"/>
	<path fill="#0BA082" d="M125.136,62.475h-3.459l-8.873-14.123v14.123h-3.459V42.568h3.459l8.9,14.178V42.568h3.432V62.475z"/>
	<path fill="#0BA082" d="M143.21,45.357h-6.207v17.117h-3.432V45.357h-6.152v-2.789h15.791V45.357z"/>
	<path fill="#0BA082" d="M157.456,53.588h-8.176v6.098h9.557v2.789h-13.016V42.568h12.92v2.789h-9.461v5.496h8.176V53.588z"/>
	<path fill="#0BA082" d="M168.968,54.818h-3.855v7.656h-3.459V42.568h7c2.297,0,4.069,0.516,5.318,1.546
		c1.249,1.031,1.873,2.522,1.873,4.475c0,1.332-0.321,2.447-0.964,3.346s-1.538,1.59-2.687,2.073l4.471,8.289v0.178h-3.705
		L168.968,54.818z M165.112,52.029h3.555c1.167,0,2.078-0.294,2.734-0.882s0.984-1.393,0.984-2.413c0-1.066-0.303-1.892-0.909-2.475
		s-1.511-0.884-2.714-0.902h-3.65V52.029z"/>
	<path fill="#0BA082" d="M182.585,55.092v7.383h-3.459V42.568h7.615c2.224,0,3.99,0.579,5.298,1.738s1.962,2.691,1.962,4.599
		c0,1.953-0.641,3.472-1.921,4.558s-3.074,1.629-5.38,1.629H182.585z M182.585,52.303h4.156c1.23,0,2.169-0.289,2.816-0.868
		s0.971-1.415,0.971-2.509c0-1.075-0.328-1.935-0.984-2.577s-1.559-0.973-2.707-0.991h-4.252V52.303z"/>
	<path fill="#0BA082" d="M204.337,54.818h-3.855v7.656h-3.459V42.568h7c2.297,0,4.069,0.516,5.318,1.546
		c1.249,1.031,1.873,2.522,1.873,4.475c0,1.332-0.321,2.447-0.964,3.346s-1.538,1.59-2.687,2.073l4.471,8.289v0.178h-3.705
		L204.337,54.818z M200.481,52.029h3.555c1.167,0,2.078-0.294,2.734-0.882s0.984-1.393,0.984-2.413c0-1.066-0.303-1.892-0.909-2.475
		s-1.511-0.884-2.714-0.902h-3.65V52.029z"/>
	<path fill="#0BA082" d="M218.146,62.475H214.7V42.568h3.445V62.475z"/>
	<path fill="#0BA082" d="M232.802,57.348c0-0.875-0.308-1.55-0.923-2.023s-1.725-0.952-3.329-1.436s-2.88-1.021-3.828-1.613
		c-1.813-1.14-2.721-2.625-2.721-4.457c0-1.604,0.654-2.926,1.962-3.965s3.006-1.559,5.093-1.559c1.386,0,2.62,0.255,3.705,0.766
		s1.937,1.237,2.557,2.181s0.93,1.989,0.93,3.138h-3.445c0-1.03-0.326-1.837-0.978-2.42s-1.584-0.875-2.796-0.875
		c-1.13,0-2.008,0.24-2.632,0.722s-0.937,1.153-0.937,2.015c0,0.727,0.337,1.333,1.012,1.818s1.786,0.957,3.336,1.416
		c1.55,0.458,2.794,0.981,3.732,1.569s1.627,1.263,2.064,2.023s0.656,1.652,0.656,2.673c0,1.659-0.636,2.979-1.907,3.958
		s-2.996,1.47-5.175,1.47c-1.44,0-2.764-0.267-3.972-0.8s-2.146-1.27-2.816-2.208s-1.005-2.032-1.005-3.281h3.459
		c0,1.13,0.374,2.005,1.121,2.625s1.818,0.93,3.213,0.93c1.203,0,2.107-0.244,2.714-0.731S232.802,58.149,232.802,57.348z"/>
	<path fill="#0BA082" d="M250.93,53.588h-8.175v6.098h9.556v2.789h-13.015V42.568h12.919v2.789h-9.46v5.496h8.175V53.588z"/>
</g>
</svg>
