<?xml version="1.0" encoding="utf-8"?>
<!-- Generator: Adobe Illustrator 16.0.0, SVG Export Plug-In . SVG Version: 6.00 Build 0)  -->
<!DOCTYPE svg PUBLIC "-//W3C//DTD SVG 1.1//EN" "http://www.w3.org/Graphics/SVG/1.1/DTD/svg11.dtd">
<svg version="1.1" id="Layer_1" xmlns="http://www.w3.org/2000/svg" xmlns:xlink="http://www.w3.org/1999/xlink" x="0px" y="0px"
	 width="168.541px" height="87.533px" viewBox="0 0 168.541 87.533" enable-background="new 0 0 168.541 87.533"
	 xml:space="preserve">
<path fill="#37B894" d="M20.827,17.202c-4.242,0-7.68-3.465-7.68-7.736c0-4.273,3.438-7.737,7.68-7.737
	c4.242,0,7.681,3.464,7.681,7.737C28.508,13.738,25.069,17.202,20.827,17.202z M51.267,17.202c-4.242,0-7.681-3.465-7.681-7.736
	c0-4.273,3.438-7.737,7.681-7.737c4.243,0,7.681,3.464,7.681,7.737C58.947,13.738,55.509,17.202,51.267,17.202z M69.912,65.339
	c-0.083,2.062-1.739,3.708-3.775,3.708c-2.09,0-3.783-1.732-3.783-3.869c0-0.31,0.039-0.608,0.106-0.896V40.6
	c0-6.249-4.93-11.315-11.01-11.315c-6.081,0-11.01,5.066-11.01,11.315v24.739c-0.021,0-0.044,0-0.065,0
	c-0.176,2.078-1.878,3.708-3.955,3.708s-3.779-1.63-3.955-3.708c-0.022,0-0.043,0-0.065,0V40.6c0-6.249-4.929-11.315-11.009-11.315
	c-6.081,0-11.01,5.066-11.01,11.315v23.683c0.067,0.287,0.106,0.587,0.106,0.896c0,2.137-1.694,3.869-3.784,3.869
	c-2.036,0-3.692-1.646-3.775-3.708c-0.005,0-0.008,0-0.008,0V39.779c0-10.485,8.27-18.984,18.471-18.984
	c6.198,0,11.679,3.142,15.029,7.957c3.351-4.815,8.831-7.957,15.03-7.957c10.2,0,18.47,8.5,18.47,18.984V65.34
	C69.92,65.339,69.918,65.339,69.912,65.339z"/>
<g enable-background="new    ">
	<path fill="#37B894" d="M86.531,60.186h-4.666v3.369h5.413v1.428h-7.192V54.319h7.141v1.428h-5.361v3.011h4.666V60.186z"/>
	<path fill="#37B894" d="M97.107,64.983h-1.773l-4.73-7.785l-0.045,0.014v7.771h-1.779V54.319h1.779l4.732,7.778l0.043-0.015v-7.764
		h1.773V64.983z"/>
	<path fill="#37B894" d="M106.73,55.746h-3.223v9.236h-1.779v-9.236h-3.223v-1.428h8.225V55.746z"/>
	<path fill="#37B894" d="M114.568,60.186h-4.666v3.369h5.412v1.428h-7.191V54.319h7.141v1.428h-5.361v3.011h4.666V60.186z"/>
	<path fill="#37B894" d="M118.596,60.559v4.424h-1.779V54.319h3.94c1.191,0,2.112,0.269,2.761,0.806
		c0.65,0.537,0.975,1.304,0.975,2.3c0,0.552-0.143,1.026-0.428,1.425c-0.287,0.397-0.703,0.717-1.25,0.956
		c0.602,0.189,1.033,0.501,1.297,0.934c0.264,0.432,0.396,0.963,0.396,1.593v0.886c0,0.313,0.039,0.618,0.117,0.916
		s0.21,0.525,0.396,0.682v0.168h-1.831c-0.195-0.161-0.321-0.415-0.378-0.762c-0.056-0.347-0.084-0.686-0.084-1.018v-0.857
		c0-0.547-0.156-0.981-0.469-1.304s-0.742-0.483-1.289-0.483H118.596z M118.596,59.131h2.066c0.713,0,1.232-0.137,1.56-0.41
		s0.491-0.691,0.491-1.253c0-0.537-0.162-0.958-0.484-1.264c-0.322-0.305-0.813-0.458-1.472-0.458h-2.161V59.131z"/>
	<path fill="#37B894" d="M128.527,60.94v4.043h-1.779V54.319h4.168c1.176,0,2.098,0.304,2.764,0.912c0.668,0.607,1,1.407,1,2.398
		c0,1.001-0.332,1.803-1,2.406c-0.666,0.603-1.588,0.904-2.764,0.904H128.527z M128.527,59.512h2.389
		c0.658,0,1.154-0.176,1.486-0.527s0.498-0.799,0.498-1.341s-0.166-0.993-0.498-1.354s-0.828-0.543-1.486-0.543h-2.389V59.512z"/>
	<path fill="#37B894" d="M138.218,60.559v4.424h-1.78V54.319h3.941c1.191,0,2.111,0.269,2.761,0.806s0.974,1.304,0.974,2.3
		c0,0.552-0.143,1.026-0.428,1.425c-0.286,0.397-0.702,0.717-1.249,0.956c0.601,0.189,1.032,0.501,1.296,0.934
		c0.264,0.432,0.396,0.963,0.396,1.593v0.886c0,0.313,0.039,0.618,0.117,0.916s0.209,0.525,0.395,0.682v0.168h-1.83
		c-0.195-0.161-0.322-0.415-0.378-0.762s-0.084-0.686-0.084-1.018v-0.857c0-0.547-0.156-0.981-0.469-1.304s-0.742-0.483-1.289-0.483
		H138.218z M138.218,59.131h2.065c0.713,0,1.232-0.137,1.561-0.41c0.326-0.273,0.49-0.691,0.49-1.253
		c0-0.537-0.161-0.958-0.483-1.264c-0.322-0.305-0.813-0.458-1.472-0.458h-2.161V59.131z"/>
	<path fill="#37B894" d="M148.252,64.983h-1.779V54.319h1.779V64.983z"/>
	<path fill="#37B894" d="M156.463,62.236c0-0.442-0.166-0.805-0.494-1.087c-0.33-0.282-0.912-0.535-1.748-0.758
		c-1.191-0.313-2.107-0.727-2.75-1.242c-0.643-0.515-0.963-1.189-0.963-2.025c0-0.858,0.355-1.566,1.066-2.123
		c0.709-0.557,1.627-0.836,2.75-0.836c1.172,0,2.113,0.316,2.822,0.949c0.711,0.632,1.055,1.391,1.029,2.273l-0.014,0.045h-1.707
		c0-0.547-0.186-0.99-0.557-1.33c-0.371-0.339-0.9-0.509-1.59-0.509c-0.648,0-1.148,0.142-1.498,0.424
		c-0.349,0.283-0.523,0.648-0.523,1.096c0,0.405,0.189,0.741,0.568,1.009c0.378,0.269,1.004,0.521,1.879,0.76
		c1.146,0.309,2.019,0.732,2.614,1.275c0.596,0.541,0.894,1.232,0.894,2.072c0,0.889-0.355,1.596-1.066,2.12
		c-0.709,0.525-1.644,0.788-2.801,0.788c-1.113,0-2.09-0.297-2.93-0.891c-0.84-0.593-1.248-1.402-1.223-2.428l0.014-0.044h1.715
		c0,0.649,0.225,1.134,0.674,1.454c0.449,0.319,1.032,0.479,1.75,0.479c0.659,0,1.172-0.133,1.538-0.397
		S156.463,62.688,156.463,62.236z"/>
	<path fill="#37B894" d="M166.563,60.186h-4.666v3.369h5.413v1.428h-7.192V54.319h7.141v1.428h-5.361v3.011h4.666V60.186z"/>
</g>
<g enable-background="new    ">
	<path fill="#37B894" d="M6.725,74.403l3.069,8.203h0.044l3.076-8.203h2.307v10.664h-1.78v-3.633l0.176-4.621l-0.044-0.008
		l-3.164,8.262H9.215l-3.149-8.24l-0.044,0.008l0.176,4.6v3.633h-1.78V74.403H6.725z"/>
	<path fill="#37B894" d="M19.227,75.201h-1.78v-1.561h1.78V75.201z M19.227,85.067h-1.78v-7.925h1.78V85.067z"/>
	<path fill="#37B894" d="M22.831,77.142l0.103,1.143c0.259-0.405,0.584-0.722,0.978-0.948c0.393-0.228,0.836-0.341,1.33-0.341
		c0.825,0,1.468,0.25,1.93,0.751c0.461,0.5,0.692,1.28,0.692,2.34v4.98h-1.78v-4.966c0-0.596-0.124-1.02-0.37-1.271
		c-0.247-0.252-0.621-0.377-1.124-0.377c-0.347,0-0.657,0.076-0.93,0.23c-0.273,0.153-0.498,0.365-0.674,0.633v5.75h-1.78v-7.925
		H22.831z"/>
	<path fill="#37B894" d="M31.927,75.215v1.927h1.421v1.318h-1.421v4.38c0,0.327,0.071,0.561,0.212,0.699
		c0.142,0.14,0.33,0.209,0.564,0.209c0.098,0,0.193-0.009,0.286-0.025c0.093-0.018,0.181-0.041,0.264-0.07l0.19,1.305
		c-0.151,0.083-0.332,0.147-0.542,0.193c-0.21,0.047-0.427,0.07-0.652,0.07c-0.654,0-1.167-0.192-1.538-0.575
		c-0.371-0.384-0.557-0.985-0.557-1.806v-4.38h-1.208v-1.318h1.208v-1.927H31.927z"/>
	<path fill="#37B894" d="M37.464,74.403l3.069,8.203h0.044l3.076-8.203h2.307v10.664h-1.78v-3.633l0.176-4.621l-0.044-0.008
		l-3.164,8.262h-1.194l-3.149-8.24l-0.044,0.008l0.176,4.6v3.633h-1.78V74.403H37.464z"/>
	<path fill="#37B894" d="M51.468,85.221c-1.123,0-2.018-0.368-2.685-1.103c-0.666-0.735-1-1.679-1-2.831v-0.293
		c0-1.152,0.331-2.108,0.993-2.867c0.661-0.76,1.49-1.137,2.486-1.132c1.069,0,1.888,0.323,2.457,0.971
		c0.569,0.646,0.854,1.515,0.854,2.604v1.048H49.63l-0.015,0.036c0.029,0.628,0.213,1.141,0.553,1.54
		c0.339,0.399,0.809,0.599,1.41,0.599c0.479,0,0.889-0.059,1.23-0.176s0.671-0.286,0.989-0.505l0.571,1.167
		c-0.298,0.265-0.693,0.488-1.187,0.67C52.689,85.129,52.118,85.221,51.468,85.221z M51.263,78.424
		c-0.439,0-0.801,0.174-1.084,0.523c-0.283,0.349-0.459,0.792-0.527,1.329l0.015,0.036h3.142V80.13c0-0.503-0.128-0.913-0.384-1.23
		C52.167,78.582,51.781,78.424,51.263,78.424z"/>
	<path fill="#37B894" d="M60.462,82.913c0-0.273-0.117-0.5-0.352-0.681s-0.671-0.34-1.311-0.477c-0.947-0.2-1.664-0.484-2.15-0.854
		c-0.486-0.368-0.729-0.87-0.729-1.505c0-0.664,0.281-1.23,0.842-1.699s1.301-0.703,2.219-0.703c0.967,0,1.734,0.238,2.304,0.714
		c0.568,0.477,0.841,1.066,0.816,1.77l-0.015,0.043h-1.707c0-0.326-0.125-0.607-0.374-0.842s-0.591-0.352-1.025-0.352
		c-0.43,0-0.757,0.097-0.981,0.289c-0.225,0.193-0.337,0.429-0.337,0.707s0.106,0.499,0.318,0.663
		c0.213,0.163,0.644,0.309,1.293,0.436c0.996,0.205,1.734,0.494,2.216,0.868c0.48,0.373,0.721,0.883,0.721,1.527
		c0,0.713-0.294,1.291-0.882,1.735c-0.589,0.444-1.364,0.667-2.326,0.667c-1.03,0-1.843-0.264-2.439-0.791s-0.879-1.133-0.85-1.816
		l0.015-0.045h1.655c0.02,0.46,0.186,0.794,0.498,1.004s0.693,0.314,1.143,0.314c0.459,0,0.813-0.088,1.062-0.264
		S60.462,83.211,60.462,82.913z"/>
	<path fill="#37B894" d="M65.567,78.167c0.264-0.371,0.584-0.659,0.963-0.864s0.797-0.308,1.256-0.308
		c0.84,0,1.495,0.265,1.966,0.795c0.471,0.529,0.707,1.347,0.707,2.45v4.826h-1.78v-4.842c0-0.624-0.125-1.076-0.374-1.354
		s-0.623-0.417-1.121-0.417c-0.347,0-0.658,0.071-0.934,0.216c-0.276,0.144-0.504,0.343-0.685,0.597v5.801h-1.78V73.641h1.78V78.167
		z"/>
</g>
</svg>
