<?xml version="1.0" encoding="utf-8"?>
<!-- Generator: Adobe Illustrator 16.0.0, SVG Export Plug-In . SVG Version: 6.00 Build 0)  -->
<!DOCTYPE svg PUBLIC "-//W3C//DTD SVG 1.1 Tiny//EN" "http://www.w3.org/Graphics/SVG/1.1/DTD/svg11-tiny.dtd">
<svg version="1.1" baseProfile="tiny" id="Layer_1" xmlns="http://www.w3.org/2000/svg" xmlns:xlink="http://www.w3.org/1999/xlink"
	 x="0px" y="0px" width="21px" height="21px" viewBox="0 0 21 21" xml:space="preserve">
<g>
	<path fill="#999999" d="M10.5,0.05C4.737,0.05,0.05,4.738,0.05,10.5c0,5.762,4.688,10.45,10.45,10.45
		c5.762,0,10.45-4.688,10.45-10.45C20.95,4.738,16.262,0.05,10.5,0.05z M10.5,19.906c-5.187,0-9.406-4.22-9.406-9.406
		S5.313,1.094,10.5,1.094c5.187,0,9.406,4.219,9.406,9.406S15.687,19.906,10.5,19.906z M13.069,11.736l-2.046,2.045v-7.82
		c0-0.29-0.234-0.524-0.523-0.524S9.975,5.671,9.975,5.961v7.816L7.93,11.731c-0.205-0.204-0.533-0.204-0.738,0
		c-0.204,0.205-0.204,0.533,0,0.737l2.937,2.937c0.103,0.102,0.235,0.153,0.371,0.153s0.268-0.047,0.37-0.148l2.938-2.938
		c0.204-0.204,0.204-0.532,0-0.736C13.603,11.531,13.274,11.531,13.069,11.736z"/>
</g>
</svg>
