<?xml version="1.0" encoding="utf-8"?>
<!-- Generator: Adobe Illustrator 16.0.0, SVG Export Plug-In . SVG Version: 6.00 Build 0)  -->
<!DOCTYPE svg PUBLIC "-//W3C//DTD SVG 1.1 Tiny//EN" "http://www.w3.org/Graphics/SVG/1.1/DTD/svg11-tiny.dtd">
<svg version="1.1" baseProfile="tiny" id="Layer_1" xmlns="http://www.w3.org/2000/svg" xmlns:xlink="http://www.w3.org/1999/xlink"
	 x="0px" y="0px" width="48px" height="48px" viewBox="0 0 48 48" xml:space="preserve">
<path fill-rule="evenodd" fill="#3FCAA3" d="M24,0.05c13.228,0,23.95,10.723,23.95,23.95c0,13.229-10.723,23.95-23.95,23.95
	C10.773,47.95,0.05,37.229,0.05,24C0.05,10.773,10.773,0.05,24,0.05z"/>
<path fill="#FFFFFF" d="M33.013,19.518l-1.518,1.521L27.7,17.232l1.519-1.521c0.309-0.31,0.848-0.31,1.156,0l2.638,2.647
	C33.331,18.678,33.331,19.199,33.013,19.518L33.013,19.518z M20.332,32.236l-3.794-3.806l9.809-9.842l3.795,3.807L20.332,32.236
	L20.332,32.236z M15.662,30.267l2.839,2.849l-3.954,1.116L15.662,30.267L15.662,30.267z M34.367,17.002l-2.639-2.647
	c-0.515-0.516-2.374-1.492-3.859,0l-13.364,13.4c-0.118,0.117-0.202,0.258-0.244,0.418l-2.015,7.186
	c-0.093,0.333,0.004,0.689,0.244,0.938c0.244,0.248,0.731,0.29,0.937,0.243l7.168-2.022c0.159-0.041,0.299-0.126,0.416-0.244
	l13.356-13.399C35.431,19.809,35.431,18.072,34.367,17.002L34.367,17.002z"/>
</svg>
