<?xml version="1.0" encoding="utf-8"?>
<!-- Generator: Adobe Illustrator 16.0.0, SVG Export Plug-In . SVG Version: 6.00 Build 0)  -->
<!DOCTYPE svg PUBLIC "-//W3C//DTD SVG 1.1 Tiny//EN" "http://www.w3.org/Graphics/SVG/1.1/DTD/svg11-tiny.dtd">
<svg version="1.1" baseProfile="tiny" id="Layer_1" xmlns="http://www.w3.org/2000/svg" xmlns:xlink="http://www.w3.org/1999/xlink"
	 x="0px" y="0px" width="112px" height="76px" viewBox="0 0 112 76" xml:space="preserve">
<g>
	<path fill="#8A8C8C" d="M86.163,0.297H7.959c-4.143,0-7.516,3.38-7.516,7.537v51.393c0,4.157,3.373,7.536,7.516,7.536h78.204
		c4.143,0,7.517-3.379,7.517-7.536V7.834C93.68,3.677,90.306,0.297,86.163,0.297z M86.163,3.312c0.775,0,1.495,0.216,2.134,0.563
		L50.603,36.833c-1.918,1.679-5.165,1.679-7.086,0L5.833,3.871c0.637-0.346,1.354-0.56,2.127-0.56H86.163z M90.673,59.227
		c0,2.493-2.023,4.522-4.51,4.522H7.959c-2.487,0-4.51-2.029-4.51-4.522V7.834c0-0.617,0.125-1.205,0.35-1.741l30.573,26.745
		l-17.216,16.19c-0.604,0.565-0.634,1.521-0.066,2.128c0.298,0.316,0.697,0.476,1.098,0.476c0.37,0,0.739-0.136,1.028-0.41
		l17.305-16.273c0.044-0.042,0.063-0.097,0.101-0.143l4.92,4.304c1.521,1.329,3.521,1.995,5.52,1.995c2,0,3.996-0.666,5.52-1.999
		l4.92-4.302c0.038,0.046,0.058,0.103,0.103,0.145l17.3,16.273c0.289,0.274,0.658,0.41,1.028,0.41c0.403,0,0.8-0.159,1.098-0.476
		c0.567-0.606,0.538-1.563-0.066-2.128L59.752,32.836L90.326,6.104c0.222,0.534,0.347,1.117,0.347,1.73V59.227z"/>
</g>
<g>
	<path fill="#AEDABF" d="M89.103,74.172c-11.492,0-20.842-9.35-20.842-20.842c0-11.491,9.35-20.841,20.842-20.841
		c11.491,0,20.841,9.35,20.841,20.841C109.943,64.822,100.594,74.172,89.103,74.172z"/>
	<path fill="#8A8C8C" d="M89.103,33.989c10.682,0,19.341,8.659,19.341,19.341c0,10.683-8.659,19.342-19.341,19.342
		c-10.683,0-19.342-8.659-19.342-19.342C69.761,42.648,78.42,33.989,89.103,33.989 M89.103,30.989
		c-12.319,0-22.342,10.022-22.342,22.341c0,12.319,10.022,22.342,22.342,22.342c12.318,0,22.341-10.022,22.341-22.342
		C111.443,41.012,101.421,30.989,89.103,30.989L89.103,30.989z"/>
</g>
<g>
	<path fill="#FFFFFF" d="M86.132,61.381c-0.605,0-1.176-0.235-1.604-0.664l-4.928-4.927c-0.885-0.885-0.885-2.323,0-3.208
		c0.427-0.428,0.996-0.665,1.603-0.665s1.176,0.236,1.604,0.666l3.324,3.322l9.267-9.266c0.429-0.429,0.998-0.664,1.604-0.664
		s1.175,0.235,1.604,0.664s0.664,0.998,0.664,1.604c0,0.606-0.236,1.177-0.665,1.604L87.738,60.714
		C87.306,61.146,86.736,61.381,86.132,61.381z"/>
	<path fill="#8A8C8C" d="M97.002,46.976c0.324,0,0.648,0.124,0.896,0.371c0.495,0.495,0.495,1.299,0,1.793L87.031,60.007
		c-0.001,0-0.001,0.002-0.002,0.003c-0.248,0.247-0.573,0.371-0.897,0.371c-0.325,0-0.649-0.124-0.896-0.371l-4.928-4.927
		c-0.496-0.496-0.496-1.298,0-1.794c0.247-0.248,0.571-0.372,0.896-0.372s0.649,0.124,0.896,0.372l4.032,4.03l9.974-9.973
		C96.354,47.1,96.678,46.976,97.002,46.976 M97.002,44.976c-0.873,0-1.693,0.34-2.311,0.957l-8.56,8.559l-2.618-2.617
		c-0.615-0.616-1.437-0.957-2.311-0.957s-1.695,0.342-2.313,0.961c-1.271,1.271-1.271,3.345,0.003,4.619l4.928,4.927
		c0.617,0.617,1.438,0.957,2.311,0.957c0.539,0,1.058-0.13,1.521-0.374h0.206l0.537-0.537c0.015-0.014,0.029-0.028,0.044-0.043
		l0.3-0.298l0.001-0.004l10.571-10.571c0.617-0.615,0.957-1.437,0.957-2.311c0-0.873-0.34-1.693-0.957-2.311
		S97.875,44.976,97.002,44.976L97.002,44.976z"/>
</g>
</svg>
