<?xml version="1.0" encoding="utf-8"?>
<!-- Generator: Adobe Illustrator 16.0.0, SVG Export Plug-In . SVG Version: 6.00 Build 0)  -->
<!DOCTYPE svg PUBLIC "-//W3C//DTD SVG 1.1 Tiny//EN" "http://www.w3.org/Graphics/SVG/1.1/DTD/svg11-tiny.dtd">
<svg version="1.1" baseProfile="tiny" id="Layer_1" xmlns="http://www.w3.org/2000/svg" xmlns:xlink="http://www.w3.org/1999/xlink"
	 x="0px" y="0px" width="16px" height="14px" viewBox="0 0 16 14" xml:space="preserve">
<g>
	<path fill-rule="evenodd" fill="#549E33" d="M12.969,6.006H3.031V7h9.938V6.006z M14.956,2.031h-2.981V1.038
		c0-0.751-0.228-0.994-0.993-0.994L5.401,0.045c-0.766,0-1.389,0.61-1.389,1.361l0.005,0.625H1.044
		c-0.779,0-0.994,0.211-0.994,0.994v9.938c0,0.782,0.215,0.993,0.994,0.993h13.912c0.779,0,0.994-0.211,0.994-0.993V3.025
		C15.95,2.242,15.735,2.031,14.956,2.031z M5.11,1.462c0-0.161,0.062-0.302,0.148-0.425h5.483c0.087,0.123,0.148,0.264,0.148,0.425
		v0.569H5.11V1.462z M14.956,12.963H1.044V3.025h13.912V12.963z M12.969,8.987H3.031v0.994h9.938V8.987z"/>
</g>
</svg>
