<?xml version="1.0" encoding="utf-8"?>
<!-- Generator: Adobe Illustrator 16.0.0, SVG Export Plug-In . SVG Version: 6.00 Build 0)  -->
<!DOCTYPE svg PUBLIC "-//W3C//DTD SVG 1.1 Tiny//EN" "http://www.w3.org/Graphics/SVG/1.1/DTD/svg11-tiny.dtd">
<svg version="1.1" baseProfile="tiny" id="Layer_1" xmlns="http://www.w3.org/2000/svg" xmlns:xlink="http://www.w3.org/1999/xlink"
	 x="0px" y="0px" width="16px" height="16px" viewBox="0 0 16 16" xml:space="preserve">
<path fill="#1b8cc6" d="M7.999,0.1C3.644,0.1,0.1,3.645,0.1,8c0,4.356,3.544,7.9,7.899,7.9c4.356,0,7.901-3.544,7.901-7.9
	C15.9,3.645,12.355,0.1,7.999,0.1z M7.999,15.13c-3.931,0-7.128-3.2-7.128-7.13c0-3.931,3.197-7.128,7.128-7.128
	c3.931,0,7.13,3.198,7.13,7.128C15.129,11.93,11.93,15.13,7.999,15.13z M9.871,11.416v0.834c0,0.037-0.027,0.064-0.063,0.064H6.737
	c-0.035,0-0.063-0.029-0.063-0.064v-0.834c0-0.037,0.029-0.063,0.063-0.063h0.885V6.891H6.729c-0.035,0-0.063-0.028-0.063-0.063
	V5.973c0-0.037,0.028-0.063,0.063-0.063h2.096c0.035,0,0.063,0.029,0.063,0.063v5.379h0.922C9.844,11.352,9.871,11.379,9.871,11.416
	z M7.08,4.348c0-0.533,0.431-0.963,0.963-0.963s0.963,0.43,0.963,0.963c0,0.532-0.431,0.962-0.963,0.962S7.08,4.88,7.08,4.348z"/>
</svg>
