<?xml version="1.0" encoding="utf-8"?>
<!-- Generator: Adobe Illustrator 16.0.0, SVG Export Plug-In . SVG Version: 6.00 Build 0)  -->
<!DOCTYPE svg PUBLIC "-//W3C//DTD SVG 1.1 Tiny//EN" "http://www.w3.org/Graphics/SVG/1.1/DTD/svg11-tiny.dtd">
<svg version="1.1" baseProfile="tiny" id="Layer_1" xmlns="http://www.w3.org/2000/svg" xmlns:xlink="http://www.w3.org/1999/xlink"
	 x="0px" y="0px" width="17px" height="12px" viewBox="0 0 17 12" xml:space="preserve">
<g>
	<path fill="#5AC1C8" d="M16.853,0.478c0.076-0.101,0.089-0.237,0.001-0.335c-0.102-0.113-0.272-0.122-0.391-0.03
		c-0.136-0.043-0.297-0.069-0.506-0.069H1.058c-0.217,0-0.381,0.029-0.52,0.076L0.521,0.105C0.403,0.006,0.223,0.017,0.12,0.132
		c-0.101,0.112-0.087,0.28,0.024,0.38C0.095,0.651,0.064,0.817,0.064,1.036v9.932c0,0.747,0.243,0.994,0.994,0.994h14.899
		c0.751,0,0.993-0.247,0.993-0.994V1.036C16.95,0.796,16.912,0.623,16.853,0.478z M15.36,1.036l-6.2,5.232
		c-0.362,0.307-0.976,0.307-1.34,0L1.624,1.036H15.36z M1.058,10.968V1.289l5.034,4.25L2.836,8.495
		c-0.115,0.103-0.12,0.277-0.013,0.388C2.879,8.941,2.955,8.97,3.031,8.97c0.07,0,0.14-0.024,0.194-0.075l3.272-2.97
		c0.009-0.008,0.006-0.022,0.014-0.031l0.936,0.79c0.288,0.243,0.666,0.365,1.043,0.365c0.378,0,0.756-0.122,1.045-0.365
		l0.935-0.789c0.008,0.009,0.005,0.021,0.014,0.03l3.272,2.97c0.055,0.051,0.125,0.075,0.194,0.075c0.076,0,0.151-0.028,0.208-0.087
		c0.106-0.11,0.101-0.285-0.014-0.388L10.891,5.54l5.066-4.276v9.704H1.058z"/>
</g>
</svg>
