<?xml version="1.0" encoding="utf-8"?>
<!-- Generator: Adobe Illustrator 16.0.0, SVG Export Plug-In . SVG Version: 6.00 Build 0)  -->
<!DOCTYPE svg PUBLIC "-//W3C//DTD SVG 1.1 Tiny//EN" "http://www.w3.org/Graphics/SVG/1.1/DTD/svg11-tiny.dtd">
<svg version="1.1" baseProfile="tiny" id="Layer_1" xmlns="http://www.w3.org/2000/svg" xmlns:xlink="http://www.w3.org/1999/xlink"
	 x="0px" y="0px" width="137px" height="38px" viewBox="0 0 137 38" xml:space="preserve">
<g>
	<path fill="#34B893" d="M27.618,10.809c-3.492,0-6.578,1.762-8.466,4.463c-1.887-2.701-4.975-4.463-8.466-4.463
		c-5.746,0-10.404,4.768-10.404,10.647v14.335c0,0,0.001,0,0.004,0c0.047,1.156,0.98,2.079,2.126,2.079
		c1.178,0,2.131-0.972,2.131-2.17c0-0.173-0.021-0.34-0.059-0.502V21.917c0-3.505,2.776-6.346,6.202-6.346
		c3.425,0,6.202,2.841,6.202,6.346v13.874h0.037c0.099,1.166,1.058,2.079,2.228,2.079c1.17,0,2.128-0.913,2.228-2.079h0.037V21.917
		c0-3.505,2.776-6.346,6.201-6.346c3.426,0,6.203,2.841,6.203,6.346v13.281c-0.038,0.162-0.061,0.329-0.061,0.502
		c0,1.198,0.955,2.17,2.131,2.17c1.147,0,2.08-0.923,2.127-2.079c0.003,0,0.004,0,0.004,0V21.456
		C38.023,15.577,33.365,10.809,27.618,10.809z M10.368,8.795c2.39,0,4.327-1.942,4.327-4.338c0-2.396-1.937-4.339-4.327-4.339
		c-2.39,0-4.326,1.943-4.326,4.339C6.042,6.853,7.979,8.795,10.368,8.795z M27.515,8.795c2.39,0,4.327-1.942,4.327-4.338
		c0-2.396-1.938-4.339-4.327-4.339c-2.389,0-4.326,1.943-4.326,4.339C23.189,6.853,25.126,8.795,27.515,8.795z M55.094,17.008h1.767
		V6.417H54.57l-3.056,8.147h-0.043l-3.048-8.147h-2.291v10.591h1.767V13.4l-0.174-4.568l0.043-0.007l3.128,8.184h1.186l3.143-8.206
		l0.043,0.007l-0.174,4.59V17.008z M61.498,6.417H59.73v10.591h1.768V6.417z M66.127,9.29l0.044-0.015l4.698,7.732h1.763V6.417
		h-1.763v7.71l-0.043,0.015l-4.699-7.725h-1.768v10.591h1.768V9.29z M74.468,7.835h3.201v9.173h1.767V7.835h3.201V6.417h-8.169
		V7.835z M93.428,17.008h1.767V6.417h-2.29l-3.056,8.147h-0.045l-3.047-8.147h-2.291v10.591h1.768V13.4l-0.176-4.568l0.043-0.007
		l3.13,8.184h1.185l3.143-8.206l0.044,0.007l-0.174,4.59V17.008z M105.105,15.589h-5.376v-3.346h4.635v-1.418h-4.635v-2.99h5.325
		V6.417h-7.092v10.591h7.143V15.589z M111.066,10.948c-0.869-0.237-1.49-0.488-1.866-0.755c-0.377-0.266-0.563-0.6-0.563-1.001
		c0-0.445,0.172-0.808,0.52-1.088c0.346-0.28,0.842-0.421,1.487-0.421c0.684,0,1.209,0.168,1.577,0.505
		c0.369,0.337,0.553,0.777,0.553,1.32h1.696l0.016-0.043c0.023-0.877-0.318-1.63-1.022-2.258c-0.707-0.628-1.642-0.942-2.806-0.942
		c-1.115,0-2.024,0.276-2.73,0.829c-0.706,0.553-1.06,1.256-1.06,2.109c0,0.83,0.32,1.5,0.957,2.012
		c0.639,0.512,1.549,0.922,2.733,1.233c0.828,0.222,1.405,0.473,1.733,0.753c0.328,0.28,0.49,0.64,0.49,1.08
		c0,0.449-0.182,0.805-0.545,1.068c-0.364,0.263-0.872,0.395-1.528,0.395c-0.712,0-1.292-0.159-1.737-0.476
		c-0.447-0.318-0.67-0.799-0.67-1.444h-1.703l-0.013,0.043c-0.025,1.019,0.379,1.823,1.214,2.411
		c0.834,0.59,1.804,0.884,2.909,0.884c1.15,0,2.077-0.26,2.784-0.782c0.704-0.521,1.057-1.224,1.057-2.106
		c0-0.833-0.295-1.52-0.887-2.058C113.071,11.676,112.205,11.254,111.066,10.948z M123.37,17.008h1.76V6.417h-1.76v4.655h-4.743
		V6.417h-1.767v10.591h1.767v-4.517h4.743V17.008z M47.899,30.12h4.634v-1.418h-4.634v-2.99h5.325v-1.418h-7.092v10.592h7.143
		v-1.419h-5.375V30.12z M61.724,32.004l-0.044,0.015l-4.699-7.725h-1.767v10.592h1.767v-7.72l0.044-0.014l4.699,7.733h1.76V24.294
		h-1.76V32.004z M65.32,25.712h3.201v9.174h1.767v-9.174h3.201v-1.418H65.32V25.712z M77.087,30.12h4.633v-1.418h-4.633v-2.99h5.324
		v-1.418h-7.093v10.592h7.144v-1.419h-5.375V30.12z M92.037,33.131v-0.88c0-0.625-0.131-1.152-0.393-1.581
		c-0.262-0.43-0.69-0.739-1.288-0.927c0.543-0.239,0.957-0.556,1.242-0.95c0.283-0.395,0.425-0.866,0.425-1.415
		c0-0.989-0.322-1.751-0.968-2.284c-0.645-0.533-1.56-0.8-2.743-0.8H84.4v10.592h1.767v-4.395h2.356c0.543,0,0.971,0.16,1.28,0.48
		c0.311,0.32,0.466,0.751,0.466,1.294v0.852c0,0.33,0.029,0.667,0.083,1.011c0.057,0.345,0.182,0.597,0.375,0.758h1.819v-0.168
		c-0.184-0.154-0.316-0.381-0.394-0.677C92.075,33.745,92.037,33.441,92.037,33.131z M89.768,28.666
		c-0.324,0.271-0.84,0.407-1.549,0.407h-2.052v-3.361h2.146c0.655,0,1.143,0.151,1.462,0.454c0.32,0.304,0.481,0.722,0.481,1.255
		C90.256,27.979,90.093,28.395,89.768,28.666z M98.85,24.294h-4.14v10.592h1.769V30.87h2.371c1.169,0,2.083-0.299,2.746-0.898
		c0.662-0.6,0.994-1.396,0.994-2.39c0-0.984-0.332-1.778-0.994-2.382C100.933,24.596,100.019,24.294,98.85,24.294z M100.325,28.928
		c-0.33,0.35-0.82,0.524-1.476,0.524h-2.371v-3.74h2.371c0.655,0,1.146,0.18,1.476,0.539c0.33,0.358,0.495,0.807,0.495,1.346
		C100.82,28.135,100.655,28.578,100.325,28.928z M112.42,33.131v-0.88c0-0.625-0.132-1.152-0.394-1.581
		c-0.262-0.43-0.69-0.739-1.288-0.927c0.543-0.239,0.956-0.556,1.241-0.95c0.283-0.395,0.426-0.866,0.426-1.415
		c0-0.989-0.322-1.751-0.969-2.284c-0.644-0.533-1.56-0.8-2.74-0.8h-3.915v10.592h1.768v-4.395h2.356c0.543,0,0.97,0.16,1.28,0.48
		s0.465,0.751,0.465,1.294v0.852c0,0.33,0.029,0.667,0.084,1.011c0.057,0.345,0.18,0.597,0.377,0.758h1.817v-0.168
		c-0.186-0.154-0.314-0.381-0.393-0.677C112.457,33.745,112.42,33.441,112.42,33.131z M110.15,28.666
		c-0.326,0.271-0.842,0.407-1.55,0.407h-2.052v-3.361h2.147c0.653,0,1.14,0.151,1.46,0.454c0.32,0.304,0.48,0.722,0.48,1.255
		C110.637,27.979,110.475,28.395,110.15,28.666z M115.193,34.886h1.769V24.294h-1.769V34.886z M123.846,28.825
		c-0.867-0.237-1.49-0.488-1.866-0.755c-0.375-0.266-0.563-0.6-0.563-1.001c0-0.446,0.172-0.809,0.52-1.089s0.842-0.422,1.487-0.422
		c0.684,0,1.211,0.17,1.58,0.507c0.368,0.337,0.553,0.777,0.553,1.32h1.693l0.016-0.044c0.023-0.878-0.316-1.63-1.022-2.259
		c-0.706-0.628-1.642-0.942-2.806-0.942c-1.114,0-2.024,0.277-2.73,0.83s-1.057,1.255-1.057,2.108c0,0.831,0.317,1.5,0.956,2.012
		c0.636,0.512,1.547,0.924,2.731,1.234c0.828,0.221,1.406,0.473,1.733,0.752c0.328,0.28,0.491,0.64,0.491,1.08
		c0,0.448-0.181,0.805-0.545,1.067c-0.363,0.264-0.873,0.395-1.527,0.395c-0.714,0-1.294-0.159-1.739-0.477
		c-0.447-0.318-0.67-0.799-0.67-1.444h-1.7l-0.016,0.044c-0.023,1.019,0.381,1.822,1.216,2.411c0.834,0.59,1.804,0.885,2.909,0.885
		c1.148,0,2.075-0.261,2.782-0.781c0.706-0.522,1.059-1.225,1.059-2.106c0-0.835-0.297-1.521-0.889-2.06
		C125.851,29.552,124.986,29.132,123.846,28.825z M131.407,33.467V30.12h4.634v-1.418h-4.634v-2.99h5.324v-1.418h-7.092v10.592
		h7.142v-1.419H131.407z"/>
</g>
</svg>
