<?xml version="1.0" encoding="utf-8"?>
<!-- Generator: Adobe Illustrator 16.0.0, SVG Export Plug-In . SVG Version: 6.00 Build 0)  -->
<!DOCTYPE svg PUBLIC "-//W3C//DTD SVG 1.1 Tiny//EN" "http://www.w3.org/Graphics/SVG/1.1/DTD/svg11-tiny.dtd">
<svg version="1.1" baseProfile="tiny" id="Layer_1" xmlns="http://www.w3.org/2000/svg" xmlns:xlink="http://www.w3.org/1999/xlink"
	 x="0px" y="0px" width="170px" height="67px" viewBox="0 0 170 67" xml:space="preserve">
<g>
	<path fill="#01B893" d="M48.749,19.129c-6.162,0-11.611,3.109-14.94,7.874c-3.331-4.765-8.779-7.874-14.94-7.874
		c-10.14,0-18.36,8.412-18.36,18.789v25.295c0,0,0.002,0,0.007,0c0.083,2.041,1.729,3.67,3.753,3.67
		c2.078,0,3.761-1.715,3.761-3.829c0-0.306-0.039-0.603-0.105-0.889V38.73c0-6.185,4.899-11.199,10.944-11.199
		c6.044,0,10.944,5.014,10.944,11.199v24.482h0.065c0.175,2.057,1.867,3.67,3.932,3.67c2.064,0,3.756-1.613,3.931-3.67h0.064V38.73
		c0-6.185,4.9-11.199,10.945-11.199c6.043,0,10.944,5.014,10.944,11.199v23.435c-0.066,0.286-0.105,0.583-0.105,0.889
		c0,2.114,1.684,3.829,3.761,3.829c2.024,0,3.67-1.629,3.753-3.67c0.005,0,0.008,0,0.008,0V37.918
		C67.109,27.541,58.889,19.129,48.749,19.129z M18.308,15.574c4.217,0,7.635-3.427,7.635-7.656c0-4.229-3.418-7.657-7.635-7.657
		s-7.635,3.428-7.635,7.657C10.673,12.147,14.091,15.574,18.308,15.574z M48.566,15.574c4.217,0,7.636-3.427,7.636-7.656
		c0-4.229-3.419-7.657-7.636-7.657c-4.216,0-7.635,3.428-7.635,7.657C40.932,12.147,44.35,15.574,48.566,15.574z M77.833,58.952
		h4.639v-1.425h-4.639v-3h5.331v-1.424h-7.101v10.632h7.152v-1.425h-5.382V58.952z M91.972,60.843l-0.044,0.015l-4.704-7.754h-1.771
		v10.632h1.771v-7.747l0.043-0.016l4.705,7.763h1.763V53.104h-1.763V60.843z M95.871,54.527h3.204v9.208h1.771v-9.208h3.203v-1.424
		h-8.178V54.527z M107.948,58.952h4.64v-1.425h-4.64v-3h5.331v-1.424h-7.1v10.632h7.15v-1.425h-5.382V58.952z M123.217,61.975
		v-0.882c0-0.629-0.13-1.159-0.394-1.59c-0.262-0.43-0.691-0.739-1.289-0.931c0.545-0.238,0.958-0.556,1.242-0.953
		c0.285-0.396,0.426-0.869,0.426-1.42c0-0.994-0.323-1.756-0.968-2.293c-0.646-0.535-1.562-0.803-2.746-0.803h-3.92v10.632h1.771
		v-4.411h2.359c0.543,0,0.971,0.16,1.282,0.482c0.311,0.321,0.466,0.754,0.466,1.301v0.853c0,0.331,0.028,0.67,0.084,1.016
		c0.055,0.346,0.182,0.598,0.375,0.76h1.822v-0.17c-0.187-0.154-0.316-0.382-0.395-0.679
		C123.256,62.591,123.217,62.286,123.217,61.975z M120.945,57.492c-0.326,0.273-0.842,0.408-1.551,0.408h-2.055v-3.373h2.148
		c0.655,0,1.144,0.152,1.464,0.456s0.481,0.725,0.481,1.259C121.434,56.805,121.27,57.219,120.945,57.492z M130.336,53.104h-4.146
		v10.632h1.771v-4.03h2.375c1.169,0,2.085-0.301,2.748-0.902s0.995-1.4,0.995-2.398c0-0.988-0.332-1.786-0.995-2.392
		C132.421,53.406,131.505,53.104,130.336,53.104z M131.813,57.756c-0.33,0.35-0.822,0.524-1.478,0.524h-2.375v-3.753h2.375
		c0.655,0,1.147,0.18,1.478,0.541c0.33,0.36,0.496,0.809,0.496,1.351C132.31,56.959,132.144,57.404,131.813,57.756z M144.22,61.975
		v-0.882c0-0.629-0.131-1.159-0.394-1.59c-0.263-0.43-0.691-0.739-1.288-0.931c0.543-0.238,0.958-0.556,1.241-0.953
		c0.283-0.396,0.426-0.869,0.426-1.42c0-0.994-0.323-1.756-0.969-2.293c-0.646-0.535-1.562-0.803-2.746-0.803h-3.918v10.632h1.77
		v-4.411h2.359c0.544,0,0.971,0.16,1.281,0.482c0.311,0.321,0.468,0.754,0.468,1.301v0.853c0,0.331,0.028,0.67,0.084,1.016
		c0.055,0.346,0.181,0.598,0.375,0.76h1.82v-0.17c-0.185-0.154-0.315-0.382-0.394-0.679C144.258,62.591,144.22,62.286,144.22,61.975
		z M141.947,57.492c-0.326,0.273-0.842,0.408-1.552,0.408h-2.054v-3.373h2.148c0.656,0,1.143,0.152,1.463,0.456
		s0.482,0.725,0.482,1.259C142.436,56.805,142.271,57.219,141.947,57.492z M147.295,63.735h1.771V53.104h-1.771V63.735z
		 M156.257,57.652c-0.869-0.237-1.492-0.49-1.867-0.758c-0.377-0.268-0.565-0.602-0.565-1.006c0-0.445,0.174-0.81,0.521-1.092
		c0.348-0.282,0.844-0.423,1.489-0.423c0.685,0,1.212,0.169,1.581,0.507s0.554,0.781,0.554,1.325h1.696l0.015-0.043
		c0.023-0.882-0.317-1.637-1.023-2.269c-0.706-0.63-1.642-0.945-2.808-0.945c-1.115,0-2.028,0.277-2.735,0.834
		c-0.705,0.555-1.059,1.26-1.059,2.116c0,0.833,0.319,1.507,0.958,2.02c0.639,0.515,1.549,0.926,2.734,1.237
		c0.83,0.225,1.408,0.476,1.736,0.756c0.328,0.281,0.492,0.643,0.492,1.084c0,0.45-0.183,0.807-0.546,1.072
		c-0.365,0.264-0.874,0.395-1.53,0.395c-0.714,0-1.293-0.159-1.741-0.478c-0.445-0.317-0.669-0.802-0.669-1.449h-1.704l-0.015,0.044
		c-0.023,1.022,0.381,1.829,1.217,2.421c0.835,0.591,1.806,0.887,2.912,0.887c1.152,0,2.08-0.262,2.786-0.785s1.06-1.229,1.06-2.112
		c0-0.839-0.298-1.526-0.89-2.067C158.264,58.383,157.397,57.959,156.257,57.652z M164.125,62.311v-3.358h4.64v-1.425h-4.64v-3
		h5.332v-1.424h-7.103v10.632h7.153v-1.425H164.125z"/>
</g>
</svg>
