<?xml version="1.0" encoding="utf-8"?>
<!-- Generator: Adobe Illustrator 16.0.0, SVG Export Plug-In . SVG Version: 6.00 Build 0)  -->
<!DOCTYPE svg PUBLIC "-//W3C//DTD SVG 1.1 Tiny//EN" "http://www.w3.org/Graphics/SVG/1.1/DTD/svg11-tiny.dtd">
<svg version="1.1" baseProfile="tiny" id="Layer_1" xmlns="http://www.w3.org/2000/svg" xmlns:xlink="http://www.w3.org/1999/xlink"
	 x="0px" y="0px" width="30px" height="30px" viewBox="0 0 30 30" xml:space="preserve">
<g>
	<path fill="#EA7B19" d="M15,0.151c-8.201,0-14.85,6.648-14.85,14.851c0,8.201,6.649,14.85,14.85,14.85s14.85-6.647,14.85-14.85
		C29.85,6.799,23.201,0.151,15,0.151L15,0.151z"/>
</g>
<g>
	<path fill="#FFFFFF" d="M13.677,19.821c-0.266,0-0.519-0.107-0.713-0.304l-3.088-3.134c-0.173-0.151-0.287-0.397-0.296-0.669
		c-0.01-0.28,0.098-0.557,0.296-0.757c0.307-0.362,1.036-0.396,1.426,0l2.374,2.408l6.151-6.265
		c0.387-0.395,1.041-0.394,1.428-0.001c0.394,0.4,0.394,1.027,0,1.427l-6.864,6.99C14.196,19.714,13.942,19.821,13.677,19.821z"/>
</g>
</svg>
