<?xml version="1.0" encoding="utf-8"?>
<!-- Generator: Adobe Illustrator 16.0.0, SVG Export Plug-In . SVG Version: 6.00 Build 0)  -->
<!DOCTYPE svg PUBLIC "-//W3C//DTD SVG 1.1 Tiny//EN" "http://www.w3.org/Graphics/SVG/1.1/DTD/svg11-tiny.dtd">
<svg version="1.1" baseProfile="tiny" id="Layer_1" xmlns="http://www.w3.org/2000/svg" xmlns:xlink="http://www.w3.org/1999/xlink"
	 x="0px" y="0px" width="52px" height="52px" viewBox="0 0 52 52" xml:space="preserve">
<g>
	<path fill="#cef0e5" d="M48.316,20.85c0.474,0,0.859-0.384,0.859-0.858c0-0.474-0.386-0.858-0.859-0.858s-0.858,0.385-0.858,0.858
		C47.458,20.466,47.843,20.85,48.316,20.85z M48.316,26c0.474,0,0.859-0.384,0.859-0.859c0-0.474-0.386-0.858-0.859-0.858
		s-0.858,0.384-0.858,0.858C47.458,25.616,47.843,26,48.316,26z M45.742,26.858c-0.475,0-0.859,0.385-0.859,0.859
		s0.385,0.857,0.859,0.857c0.474,0,0.857-0.384,0.857-0.857S46.216,26.858,45.742,26.858z M35.441,26.858
		c-0.474,0-0.858,0.385-0.858,0.859s0.385,0.857,0.858,0.857s0.859-0.384,0.859-0.857S35.915,26.858,35.441,26.858z M38.017,24.283
		c-0.475,0-0.858,0.384-0.858,0.858c0,0.475,0.384,0.859,0.858,0.859c0.474,0,0.858-0.384,0.858-0.859
		C38.875,24.667,38.49,24.283,38.017,24.283z M22.566,34.584c-0.474,0-0.858,0.384-0.858,0.857s0.385,0.859,0.858,0.859
		c0.475,0,0.858-0.386,0.858-0.859S23.041,34.584,22.566,34.584z M45.742,32.008c-0.475,0-0.859,0.385-0.859,0.859
		c0,0.474,0.385,0.857,0.859,0.857c0.474,0,0.857-0.384,0.857-0.857C46.6,32.393,46.216,32.008,45.742,32.008z M48.316,31.15
		c0.474,0,0.859-0.384,0.859-0.859c0-0.474-0.386-0.857-0.859-0.857s-0.858,0.384-0.858,0.857
		C47.458,30.767,47.843,31.15,48.316,31.15z M48.316,36.301c0.474,0,0.859-0.386,0.859-0.859s-0.386-0.857-0.859-0.857
		s-0.858,0.384-0.858,0.857S47.843,36.301,48.316,36.301z M40.592,32.008c-0.475,0-0.858,0.385-0.858,0.859
		c0,0.474,0.384,0.857,0.858,0.857c0.474,0,0.857-0.384,0.857-0.857C41.449,32.393,41.065,32.008,40.592,32.008z M43.167,29.434
		c-0.475,0-0.858,0.384-0.858,0.857c0,0.476,0.384,0.859,0.858,0.859s0.857-0.384,0.857-0.859
		C44.024,29.817,43.642,29.434,43.167,29.434z M43.167,34.584c-0.475,0-0.858,0.384-0.858,0.857s0.384,0.859,0.858,0.859
		s0.857-0.386,0.857-0.859S43.642,34.584,43.167,34.584z M30.292,32.008c-0.475,0-0.858,0.385-0.858,0.859
		c0,0.474,0.384,0.857,0.858,0.857s0.858-0.384,0.858-0.857C31.15,32.393,30.767,32.008,30.292,32.008z M35.441,32.008
		c-0.474,0-0.858,0.385-0.858,0.859c0,0.474,0.385,0.857,0.858,0.857s0.859-0.384,0.859-0.857
		C36.301,32.393,35.915,32.008,35.441,32.008z M19.991,37.158c-0.474,0-0.858,0.384-0.858,0.858s0.384,0.858,0.858,0.858
		c0.475,0,0.858-0.384,0.858-0.858S20.466,37.158,19.991,37.158z M25.142,37.158c-0.474,0-0.858,0.384-0.858,0.858
		s0.384,0.858,0.858,0.858S26,38.491,26,38.017S25.616,37.158,25.142,37.158z M9.691,37.158c-0.474,0-0.858,0.384-0.858,0.858
		s0.385,0.858,0.858,0.858c0.475,0,0.858-0.384,0.858-0.858S10.166,37.158,9.691,37.158z M45.742,37.158
		c-0.475,0-0.859,0.384-0.859,0.858s0.385,0.858,0.859,0.858c0.474,0,0.857-0.384,0.857-0.858S46.216,37.158,45.742,37.158z
		 M40.592,37.158c-0.475,0-0.858,0.384-0.858,0.858s0.384,0.858,0.858,0.858c0.474,0,0.857-0.384,0.857-0.858
		S41.065,37.158,40.592,37.158z M30.292,37.158c-0.475,0-0.858,0.384-0.858,0.858s0.384,0.858,0.858,0.858s0.858-0.384,0.858-0.858
		S30.767,37.158,30.292,37.158z M35.441,37.158c-0.474,0-0.858,0.384-0.858,0.858s0.385,0.858,0.858,0.858s0.859-0.384,0.859-0.858
		S35.915,37.158,35.441,37.158z M32.867,29.434c-0.475,0-0.859,0.384-0.859,0.857c0,0.476,0.385,0.859,0.859,0.859
		c0.474,0,0.857-0.384,0.857-0.859C33.725,29.817,33.341,29.434,32.867,29.434z M38.017,29.434c-0.475,0-0.858,0.384-0.858,0.857
		c0,0.476,0.384,0.859,0.858,0.859c0.474,0,0.858-0.384,0.858-0.859C38.875,29.817,38.49,29.434,38.017,29.434z M32.867,34.584
		c-0.475,0-0.859,0.384-0.859,0.857s0.385,0.859,0.859,0.859c0.474,0,0.857-0.386,0.857-0.859S33.341,34.584,32.867,34.584z
		 M38.017,34.584c-0.475,0-0.858,0.384-0.858,0.857s0.384,0.859,0.858,0.859c0.474,0,0.858-0.386,0.858-0.859
		S38.49,34.584,38.017,34.584z M19.991,42.309c-0.474,0-0.858,0.384-0.858,0.857c0,0.475,0.384,0.859,0.858,0.859
		c0.475,0,0.858-0.385,0.858-0.859C20.85,42.692,20.466,42.309,19.991,42.309z M22.566,39.732c-0.474,0-0.858,0.386-0.858,0.859
		s0.385,0.857,0.858,0.857c0.475,0,0.858-0.384,0.858-0.857S23.041,39.732,22.566,39.732z M22.566,44.883
		c-0.474,0-0.858,0.385-0.858,0.859c0,0.474,0.385,0.857,0.858,0.857c0.475,0,0.858-0.384,0.858-0.857
		C23.425,45.268,23.041,44.883,22.566,44.883z M25.142,42.309c-0.474,0-0.858,0.384-0.858,0.857c0,0.475,0.384,0.859,0.858,0.859
		S26,43.641,26,43.166C26,42.692,25.616,42.309,25.142,42.309z M14.842,42.309c-0.474,0-0.858,0.384-0.858,0.857
		c0,0.475,0.384,0.859,0.858,0.859c0.474,0,0.858-0.385,0.858-0.859C15.7,42.692,15.315,42.309,14.842,42.309z M17.417,44.883
		c-0.475,0-0.858,0.385-0.858,0.859c0,0.474,0.384,0.857,0.858,0.857c0.474,0,0.858-0.384,0.858-0.857
		C18.275,45.268,17.891,44.883,17.417,44.883z M4.542,44.025c0.474,0,0.858-0.385,0.858-0.859c0-0.474-0.385-0.857-0.858-0.857
		c-0.475,0-0.858,0.384-0.858,0.857C3.684,43.641,4.067,44.025,4.542,44.025z M9.691,42.309c-0.474,0-0.858,0.384-0.858,0.857
		c0,0.475,0.385,0.859,0.858,0.859c0.475,0,0.858-0.385,0.858-0.859C10.55,42.692,10.166,42.309,9.691,42.309z M7.116,39.732
		c-0.474,0-0.858,0.386-0.858,0.859s0.384,0.857,0.858,0.857c0.475,0,0.858-0.384,0.858-0.857S7.591,39.732,7.116,39.732z
		 M12.267,39.732c-0.474,0-0.858,0.386-0.858,0.859s0.384,0.857,0.858,0.857s0.858-0.384,0.858-0.857S12.741,39.732,12.267,39.732z
		 M7.116,44.883c-0.474,0-0.858,0.385-0.858,0.859c0,0.474,0.384,0.857,0.858,0.857c0.475,0,0.858-0.384,0.858-0.857
		C7.975,45.268,7.591,44.883,7.116,44.883z M12.267,44.883c-0.474,0-0.858,0.385-0.858,0.859c0,0.474,0.384,0.857,0.858,0.857
		s0.858-0.384,0.858-0.857C13.125,45.268,12.741,44.883,12.267,44.883z M45.742,42.309c-0.475,0-0.859,0.384-0.859,0.857
		c0,0.475,0.385,0.859,0.859,0.859c0.474,0,0.857-0.385,0.857-0.859C46.6,42.692,46.216,42.309,45.742,42.309z M48.316,41.449
		c0.474,0,0.859-0.384,0.859-0.857s-0.386-0.859-0.859-0.859s-0.858,0.386-0.858,0.859S47.843,41.449,48.316,41.449z M48.316,46.6
		c0.474,0,0.859-0.384,0.859-0.857c0-0.475-0.386-0.859-0.859-0.859s-0.858,0.385-0.858,0.859
		C47.458,46.216,47.843,46.6,48.316,46.6z M40.592,42.309c-0.475,0-0.858,0.384-0.858,0.857c0,0.475,0.384,0.859,0.858,0.859
		c0.474,0,0.857-0.385,0.857-0.859C41.449,42.692,41.065,42.309,40.592,42.309z M43.167,39.732c-0.475,0-0.858,0.386-0.858,0.859
		s0.384,0.857,0.858,0.857s0.857-0.384,0.857-0.857S43.642,39.732,43.167,39.732z M43.167,44.883c-0.475,0-0.858,0.385-0.858,0.859
		c0,0.474,0.384,0.857,0.858,0.857s0.857-0.384,0.857-0.857C44.024,45.268,43.642,44.883,43.167,44.883z M27.717,39.732
		c-0.475,0-0.858,0.386-0.858,0.859s0.384,0.857,0.858,0.857c0.474,0,0.857-0.384,0.857-0.857S28.19,39.732,27.717,39.732z
		 M27.717,44.883c-0.475,0-0.858,0.385-0.858,0.859c0,0.474,0.384,0.857,0.858,0.857c0.474,0,0.857-0.384,0.857-0.857
		C28.574,45.268,28.19,44.883,27.717,44.883z M30.292,42.309c-0.475,0-0.858,0.384-0.858,0.857c0,0.475,0.384,0.859,0.858,0.859
		s0.858-0.385,0.858-0.859C31.15,42.692,30.767,42.309,30.292,42.309z M35.441,42.309c-0.474,0-0.858,0.384-0.858,0.857
		c0,0.475,0.385,0.859,0.858,0.859s0.859-0.385,0.859-0.859C36.301,42.692,35.915,42.309,35.441,42.309z M32.867,39.732
		c-0.475,0-0.859,0.386-0.859,0.859s0.385,0.857,0.859,0.857c0.474,0,0.857-0.384,0.857-0.857S33.341,39.732,32.867,39.732z
		 M38.017,39.732c-0.475,0-0.858,0.386-0.858,0.859s0.384,0.857,0.858,0.857c0.474,0,0.858-0.384,0.858-0.857
		S38.49,39.732,38.017,39.732z M32.867,44.883c-0.475,0-0.859,0.385-0.859,0.859c0,0.474,0.385,0.857,0.859,0.857
		c0.474,0,0.857-0.384,0.857-0.857C33.725,45.268,33.341,44.883,32.867,44.883z M38.017,44.883c-0.475,0-0.858,0.385-0.858,0.859
		c0,0.474,0.384,0.857,0.858,0.857c0.474,0,0.858-0.384,0.858-0.857C38.875,45.268,38.49,44.883,38.017,44.883z M6.258,25.141h1.716
		c0.475,0,0.858-0.383,0.858-0.858c0-0.475-0.383-0.858-0.858-0.858H6.258c-0.475,0-0.858,0.383-0.858,0.858
		C5.4,24.758,5.784,25.141,6.258,25.141z M6.258,21.708h1.716c0.475,0,0.858-0.384,0.858-0.859c0-0.475-0.383-0.858-0.858-0.858
		H6.258c-0.475,0-0.858,0.383-0.858,0.858C5.4,21.325,5.784,21.708,6.258,21.708z M6.258,18.275h1.716
		c0.475,0,0.858-0.384,0.858-0.859c0-0.475-0.383-0.858-0.858-0.858H6.258c-0.475,0-0.858,0.383-0.858,0.858
		C5.4,17.891,5.784,18.275,6.258,18.275z M6.258,14.842h1.716c0.475,0,0.858-0.384,0.858-0.859c0-0.474-0.383-0.858-0.858-0.858
		H6.258c-0.475,0-0.858,0.384-0.858,0.858C5.4,14.458,5.784,14.842,6.258,14.842z M6.258,11.408h1.716
		c0.475,0,0.858-0.384,0.858-0.858c0-0.475-0.383-0.859-0.858-0.859H6.258c-0.475,0-0.858,0.384-0.858,0.859
		C5.4,11.024,5.784,11.408,6.258,11.408z M6.258,7.975h1.716c0.475,0,0.858-0.384,0.858-0.858c0-0.475-0.383-0.858-0.858-0.858
		H6.258C5.784,6.258,5.4,6.642,5.4,7.117C5.4,7.591,5.784,7.975,6.258,7.975z M6.258,4.542h1.716c0.475,0,0.858-0.383,0.858-0.858
		c0-0.475-0.383-0.859-0.858-0.859H6.258C5.784,2.825,5.4,3.208,5.4,3.684C5.4,4.158,5.784,4.542,6.258,4.542z M41.397,25.359
		l-5.149-6.867l-9.442,14.592l-5.271-7.028l-6.009,12.875l-4.884-6.513l-6.959,6.96V1.108c0-0.474-0.384-0.858-0.858-0.858
		c-0.475,0-0.858,0.384-0.858,0.858v47.208H1.108c-0.475,0-0.858,0.384-0.858,0.859c0,0.474,0.383,0.857,0.858,0.857h0.858v0.858
		c0,0.475,0.383,0.858,0.858,0.858c0.474,0,0.858-0.384,0.858-0.858v-0.858H51.75V9.36L41.397,25.359z M50.033,48.316H46.6
		c0-0.474-0.384-0.857-0.857-0.857c-0.475,0-0.859,0.384-0.859,0.857h-3.434c0-0.474-0.384-0.857-0.857-0.857
		s-0.858,0.384-0.858,0.857h-3.433c0-0.474-0.386-0.857-0.859-0.857s-0.858,0.384-0.858,0.857H31.15
		c0-0.474-0.385-0.857-0.858-0.857s-0.858,0.384-0.858,0.857H26c0-0.474-0.384-0.857-0.858-0.857s-0.858,0.384-0.858,0.857H20.85
		c0-0.474-0.384-0.857-0.858-0.857c-0.473,0-0.858,0.384-0.858,0.857H15.7c0-0.474-0.385-0.857-0.858-0.857
		c-0.474,0-0.858,0.384-0.858,0.857H10.55c0-0.474-0.384-0.857-0.858-0.857c-0.474,0-0.858,0.384-0.858,0.857H5.4
		c0-0.474-0.385-0.857-0.858-0.857c-0.474,0-0.858,0.384-0.858,0.857v-5.15v-1.36l6.774-6.774l5.416,7.22l0.713-1.526
		c0.066,0.409,0.404,0.725,0.831,0.725c0.473,0,0.858-0.384,0.858-0.857s-0.385-0.859-0.858-0.859c-0.161,0-0.302,0.057-0.431,0.133
		l4.895-10.488l5.029,6.707l0.11-0.169c0.153,0.226,0.402,0.386,0.697,0.386c0.474,0,0.857-0.386,0.857-0.859
		c0-0.423-0.311-0.758-0.713-0.829l8.491-13.121l4.054,5.404c-0.382,0.087-0.673,0.413-0.673,0.821c0,0.474,0.385,0.857,0.858,0.857
		c0.322,0,0.591-0.184,0.738-0.445l0.172,0.229l3.49-5.396c0.146,0.271,0.421,0.462,0.75,0.462c0.474,0,0.857-0.385,0.857-0.859
		c0-0.454-0.355-0.817-0.802-0.847l4.235-6.547V48.316z"/>
</g>
</svg>
