<?xml version="1.0" encoding="utf-8"?>
<!-- Generator: Adobe Illustrator 16.0.0, SVG Export Plug-In . SVG Version: 6.00 Build 0)  -->
<!DOCTYPE svg PUBLIC "-//W3C//DTD SVG 1.1 Tiny//EN" "http://www.w3.org/Graphics/SVG/1.1/DTD/svg11-tiny.dtd">
<svg version="1.1" baseProfile="tiny" id="Layer_1" xmlns="http://www.w3.org/2000/svg" xmlns:xlink="http://www.w3.org/1999/xlink"
	 x="0px" y="0px" width="15px" height="15px" viewBox="0 0 15 15" xml:space="preserve">
<path fill="#FA8115" d="M7.501,9.618c2.124,0,3.854-2.102,3.854-4.686c0-2.584-1.73-4.686-3.854-4.686
	c-1.052,0-2.033,0.503-2.764,1.415C4.034,2.54,3.646,3.702,3.646,4.932C3.647,7.517,5.375,9.618,7.501,9.618z M7.501,1.274
	c1.557,0,2.826,1.641,2.826,3.658s-1.27,3.66-2.826,3.66c-1.559,0-2.826-1.642-2.827-3.66C4.674,2.915,5.94,1.274,7.501,1.274z
	 M10.737,9.104c-0.284,0-0.515,0.23-0.515,0.514s0.23,0.515,0.515,0.515c1.757,0,3.186,1.428,3.186,3.184
	c0,0.227-0.185,0.409-0.41,0.409H1.488c-0.227,0-0.411-0.183-0.411-0.409c0-1.756,1.43-3.184,3.185-3.184
	c0.285,0,0.514-0.231,0.514-0.515S4.548,9.104,4.263,9.104c-2.323,0-4.213,1.89-4.213,4.212c0,0.792,0.646,1.438,1.438,1.438h12.023
	c0.792,0,1.438-0.646,1.438-1.438C14.95,10.994,13.061,9.104,10.737,9.104z"/>
</svg>
