<?xml version="1.0" encoding="UTF-8"?>
<svg width="30px" height="28px" viewBox="0 0 30 28" version="1.1" xmlns="http://www.w3.org/2000/svg" xmlns:xlink="http://www.w3.org/1999/xlink">
    <!-- Generator: Sketch 46.2 (44496) - http://www.bohemiancoding.com/sketch -->
    <title>Combined Shape</title>
    <desc>Created with Sketch.</desc>
    <defs></defs>
    <g id="Page-1" stroke="none" stroke-width="1" fill="none" fill-rule="evenodd">
        <g id="Question-1" transform="translate(-1100.000000, -175.000000)" fill-rule="nonzero" fill="#848484">
            <path d="M1100.94602,183.32969 C1100.42344,183.32969 1100,182.899934 1100,182.369969 L1100,175.959848 C1100,175.429756 1100.42344,175 1100.94602,175 L1107.26402,175 C1107.7866,175 1108.21003,175.429756 1108.21003,175.959848 C1108.21003,176.48994 1107.78647,176.919696 1107.26402,176.919696 L1103.22957,176.919696 L1109.3228,183.100606 C1109.69238,183.47533 1109.69238,184.083106 1109.32293,184.457959 C1109.13827,184.645449 1108.89609,184.73913 1108.6539,184.73913 C1108.41185,184.73913 1108.1698,184.645449 1107.98501,184.458087 L1101.89203,178.277305 L1101.89203,182.369841 C1101.89203,182.899934 1101.4686,183.32969 1100.94602,183.32969 Z M1126.672,194.831023 C1127.18444,194.831023 1127.59988,195.2525 1127.6,195.772381 L1127.6,202.058642 C1127.6,202.578523 1127.18468,203 1126.67213,203 L1120.47566,203 C1119.9631,203 1119.54779,202.578523 1119.54779,202.058642 C1119.54779,201.538762 1119.9631,201.117284 1120.47566,201.117284 L1124.43174,201.117284 L1118.27177,194.867799 C1117.90941,194.500293 1117.90941,193.904225 1118.27177,193.536593 C1118.63414,193.168962 1119.22155,193.168962 1119.58404,193.536593 L1125.74413,199.786205 L1125.74413,195.772381 C1125.74413,195.2525 1126.15944,194.831023 1126.672,194.831023 Z M1108.01586,193.536601 C1108.37837,193.16898 1108.96595,193.16898 1109.3281,193.536476 C1109.69061,193.904097 1109.69061,194.500149 1109.32822,194.86777 L1103.16814,201.117336 L1107.12465,201.117336 C1107.63725,201.117336 1108.0526,201.538802 1108.0526,202.058668 C1108.0526,202.578534 1107.63713,203 1107.12465,203 L1100.92795,203 C1100.41535,203 1100,202.578534 1100,202.058668 L1100,195.772328 C1100,195.252461 1100.41535,194.830996 1100.92795,194.830996 C1101.44055,194.830996 1101.85589,195.252461 1101.85589,195.772328 L1101.85589,199.785916 L1108.01586,193.536601 Z M1129.05378,175 C1129.57628,175 1129.99987,175.4296 1130,175.959785 L1130,182.369357 C1130,182.899415 1129.57653,183.329142 1129.05391,183.329142 C1128.53129,183.329142 1128.10782,182.899415 1128.10782,182.369357 L1128.10782,178.276834 L1122.01525,184.457977 C1121.83044,184.645327 1121.58824,184.73913 1121.34617,184.73913 C1121.1041,184.73913 1120.8619,184.645455 1120.67722,184.458105 C1120.30761,184.083277 1120.30761,183.475541 1120.67709,183.100713 L1126.76967,176.91957 L1122.73566,176.91957 C1122.21304,176.91957 1121.78957,176.489842 1121.78957,175.959785 C1121.78957,175.429728 1122.21304,175 1122.73566,175 L1129.05378,175 Z" id="Combined-Shape"></path>
        </g>
    </g>
</svg>