<?xml version="1.0" encoding="utf-8"?>
<!-- Generator: Adobe Illustrator 16.0.0, SVG Export Plug-In . SVG Version: 6.00 Build 0)  -->
<!DOCTYPE svg PUBLIC "-//W3C//DTD SVG 1.1 Tiny//EN" "http://www.w3.org/Graphics/SVG/1.1/DTD/svg11-tiny.dtd">
<svg version="1.1" baseProfile="tiny" id="Layer_1" xmlns="http://www.w3.org/2000/svg" xmlns:xlink="http://www.w3.org/1999/xlink"
	 x="0px" y="0px" width="16px" height="16px" viewBox="0 0 16 16" xml:space="preserve">
<g>
	<path fill="#666666" d="M6.582,8.238C6.513,8.169,6.434,8.134,6.343,8.134c-0.089,0-0.169,0.035-0.238,0.104l-3.437,3.437
		l-1.49-1.49c-0.131-0.131-0.287-0.197-0.466-0.197c-0.18,0-0.335,0.066-0.466,0.197c-0.132,0.131-0.197,0.286-0.197,0.466v4.637
		c0,0.181,0.065,0.335,0.197,0.466c0.131,0.132,0.286,0.197,0.466,0.197H5.35c0.179,0,0.334-0.065,0.466-0.197
		c0.131-0.131,0.197-0.285,0.197-0.466c0-0.179-0.066-0.334-0.197-0.466l-1.491-1.49l3.438-3.437
		C7.83,9.825,7.865,9.747,7.865,9.656c0-0.09-0.035-0.17-0.103-0.237L6.582,8.238z M15.752,0.247
		c-0.13-0.131-0.285-0.197-0.466-0.197H10.65c-0.181,0-0.336,0.066-0.466,0.197c-0.132,0.131-0.198,0.287-0.198,0.466
		s0.066,0.334,0.198,0.466l1.49,1.49L8.238,6.106c-0.07,0.069-0.103,0.148-0.103,0.238s0.033,0.169,0.103,0.238l1.18,1.18
		c0.069,0.069,0.147,0.103,0.238,0.103c0.09,0,0.169-0.034,0.237-0.103l3.437-3.437l1.49,1.491c0.132,0.131,0.287,0.196,0.466,0.196
		c0.181,0,0.336-0.065,0.466-0.196c0.132-0.131,0.198-0.287,0.198-0.466V0.712C15.95,0.533,15.884,0.378,15.752,0.247z"/>
</g>
</svg>
