<?xml version="1.0" encoding="utf-8"?>
<!-- Generator: Adobe Illustrator 16.0.0, SVG Export Plug-In . SVG Version: 6.00 Build 0)  -->
<!DOCTYPE svg PUBLIC "-//W3C//DTD SVG 1.1 Tiny//EN" "http://www.w3.org/Graphics/SVG/1.1/DTD/svg11-tiny.dtd">
<svg version="1.1" baseProfile="tiny" id="Layer_1" xmlns="http://www.w3.org/2000/svg" xmlns:xlink="http://www.w3.org/1999/xlink"
	 x="0px" y="0px" width="21px" height="21px" viewBox="0 0 21 21" xml:space="preserve">
<path fill="#666666" d="M14.566,13.697c1.377-1.449,2.236-3.388,2.236-5.523c0-4.481-3.753-8.139-8.377-8.139S0.05,3.693,0.05,8.174
	c0,4.48,3.752,8.138,8.376,8.138c1.882,0,3.613-0.602,5.017-1.62l6.229,6.051c0.152,0.146,0.342,0.221,0.53,0.221
	c0.19,0,0.393-0.074,0.531-0.221c0.29-0.282,0.29-0.748,0-1.043L14.566,13.697z M1.566,8.174c0-3.67,3.07-6.666,6.86-6.666
	c3.778,0,6.861,2.983,6.861,6.666c0,3.682-3.07,6.665-6.861,6.665C4.636,14.839,1.566,11.844,1.566,8.174z"/>
</svg>
