<?xml version="1.0" encoding="utf-8"?>
<!-- Generator: Adobe Illustrator 16.0.0, SVG Export Plug-In . SVG Version: 6.00 Build 0)  -->
<!DOCTYPE svg PUBLIC "-//W3C//DTD SVG 1.1//EN" "http://www.w3.org/Graphics/SVG/1.1/DTD/svg11.dtd">
<svg version="1.1" id="Layer_1" xmlns="http://www.w3.org/2000/svg" xmlns:xlink="http://www.w3.org/1999/xlink" x="0px" y="0px"
	 width="21.999px" height="22px" viewBox="0 0 21.999 22" enable-background="new 0 0 21.999 22" xml:space="preserve">
<g>
	<g>
		<path fill="#FFFFFF" d="M11,0C4.925,0,0,4.926,0,11c0,6.075,4.925,11,11,11c6.076,0,11-4.925,11-11C21.999,4.926,17.075,0,11,0z
			 M18.042,7.911l-8.73,8.033c-0.016,0.016-0.021,0.023-0.024,0.033c0.01,0.023-0.011,0.024,0,0
			c-0.003-0.008-0.005-0.015-0.017-0.024l-5.195-4.57c-0.077-0.07-0.077-0.185,0-0.255l1.205-1.109c0.077-0.07,0.202-0.07,0.278,0
			l3.614,3.326l7.388-6.798c0.077-0.071,0.201-0.071,0.278,0l1.203,1.109C18.12,7.726,18.12,7.84,18.042,7.911z"/>
	</g>
</g>
</svg>
