<?xml version="1.0" encoding="utf-8"?>
<!-- Generator: Adobe Illustrator 16.0.0, SVG Export Plug-In . SVG Version: 6.00 Build 0)  -->
<!DOCTYPE svg PUBLIC "-//W3C//DTD SVG 1.1 Tiny//EN" "http://www.w3.org/Graphics/SVG/1.1/DTD/svg11-tiny.dtd">
<svg version="1.1" baseProfile="tiny" id="Layer_1" xmlns="http://www.w3.org/2000/svg" xmlns:xlink="http://www.w3.org/1999/xlink"
	 x="0px" y="0px" width="72px" height="72px" viewBox="0 0 72 72" xml:space="preserve">
<path fill="#24972C" d="M35.995,0.245c-19.757,0-35.75,15.993-35.75,35.75s15.993,35.75,35.75,35.75
	c19.756,0,35.75-15.993,35.75-35.75S55.751,0.245,35.995,0.245z M35.995,67.981c-17.687,0-31.987-14.299-31.987-31.986
	c0-17.687,14.3-31.987,31.987-31.987c17.687,0,31.986,14.3,31.986,31.987C67.981,53.683,53.682,67.981,35.995,67.981z
	 M57.538,23.858c-0.753-0.753-1.882-0.753-2.635,0L30.915,47.941L20.848,37.877c-0.753-0.753-1.976-0.753-2.634,0
	c-0.752,0.752-0.752,1.975,0,2.634l11.384,11.383c0.376,0.377,0.846,0.564,1.317,0.564c0.47,0,0.941-0.188,1.317-0.564
	l25.306-25.401C58.291,25.74,58.291,24.611,57.538,23.858z"/>
</svg>
