<?xml version="1.0" encoding="utf-8"?>
<!-- Generator: Adobe Illustrator 16.0.0, SVG Export Plug-In . SVG Version: 6.00 Build 0)  -->
<!DOCTYPE svg PUBLIC "-//W3C//DTD SVG 1.1 Tiny//EN" "http://www.w3.org/Graphics/SVG/1.1/DTD/svg11-tiny.dtd">
<svg version="1.1" baseProfile="tiny" id="Layer_1" xmlns="http://www.w3.org/2000/svg" xmlns:xlink="http://www.w3.org/1999/xlink"
	 x="0px" y="0px" width="30px" height="30px" viewBox="0 0 30 30" xml:space="preserve">
<g>
	<path fill="#1C8467" d="M15,0.05C6.757,0.05,0.05,6.756,0.05,15c0,8.243,6.707,14.95,14.95,14.95c8.243,0,14.95-6.707,14.95-14.95
		C29.95,6.756,23.243,0.05,15,0.05z M15,28.8c-7.609,0-13.799-6.19-13.799-13.8C1.201,7.391,7.391,1.2,15,1.2
		C22.609,1.2,28.8,7.391,28.8,15C28.8,22.609,22.609,28.8,15,28.8z M22.045,8.868l-8.837,9.941l-5.323-4.258
		c-0.248-0.199-0.61-0.158-0.809,0.089c-0.198,0.248-0.157,0.61,0.091,0.808l5.749,4.601c0.106,0.084,0.234,0.125,0.36,0.125
		c0.159,0,0.316-0.064,0.43-0.193l9.198-10.35c0.213-0.236,0.191-0.601-0.045-0.811C22.619,8.608,22.257,8.63,22.045,8.868z"/>
</g>
</svg>
