<?xml version="1.0" encoding="utf-8"?>
<!-- Generator: Adobe Illustrator 16.0.0, SVG Export Plug-In . SVG Version: 6.00 Build 0)  -->
<!DOCTYPE svg PUBLIC "-//W3C//DTD SVG 1.1 Tiny//EN" "http://www.w3.org/Graphics/SVG/1.1/DTD/svg11-tiny.dtd">
<svg version="1.1" baseProfile="tiny" id="Layer_1" xmlns="http://www.w3.org/2000/svg" xmlns:xlink="http://www.w3.org/1999/xlink"
	 x="0px" y="0px" width="16px" height="16px" viewBox="0 0 16 16" xml:space="preserve">
<g>
	<path fill-rule="evenodd" fill="#BC730A" d="M10.766,8.802H9.032c-0.127-0.287-0.357-0.52-0.647-0.646V4.256
		c0-0.28-0.227-0.508-0.507-0.508c-0.28,0-0.508,0.228-0.508,0.508v3.899c-0.443,0.196-0.753,0.64-0.753,1.155
		c0,0.695,0.566,1.261,1.262,1.261c0.515,0,0.958-0.311,1.154-0.754h1.733c0.279,0,0.508-0.226,0.508-0.507
		S11.045,8.802,10.766,8.802z M7.878,9.557c-0.136,0-0.246-0.11-0.246-0.246c0-0.137,0.11-0.247,0.246-0.247s0.246,0.11,0.246,0.247
		C8.124,9.446,8.014,9.557,7.878,9.557z M8,0.05C3.616,0.05,0.05,3.616,0.05,8c0,4.385,3.566,7.95,7.95,7.95
		c4.384,0,7.95-3.565,7.95-7.95C15.95,3.616,12.384,0.05,8,0.05z M8,14.723c-3.707,0-6.722-3.017-6.722-6.723
		c0-3.707,3.016-6.722,6.722-6.722c3.706,0,6.722,3.015,6.722,6.722C14.722,11.706,11.706,14.723,8,14.723z"/>
</g>
</svg>
