<?xml version="1.0" encoding="UTF-8"?>
<svg width="14px" height="14px" viewBox="0 0 14 14" version="1.1" xmlns="http://www.w3.org/2000/svg" xmlns:xlink="http://www.w3.org/1999/xlink">
    <!-- Generator: Sketch 46.2 (44496) - http://www.bohemiancoding.com/sketch -->
    <title>time</title>
    <desc>Created with Sketch.</desc>
    <defs></defs>
    <g id="Page-1" stroke="none" stroke-width="1" fill="none" fill-rule="evenodd">
        <path d="M7,14 C10.8539326,14 14,10.8539326 14,7 C14,3.14606742 10.8539326,0 7,0 C3.14606742,0 0,3.14606742 0,7 C0,10.8539326 3.14606742,14 7,14 Z M7,1.25842697 C10.1617978,1.25842697 12.741573,3.83820225 12.741573,7 C12.741573,10.1617978 10.1617978,12.741573 7,12.741573 C3.83820225,12.741573 1.25842697,10.1617978 1.25842697,7 C1.25842697,3.83820225 3.83820225,1.25842697 7,1.25842697 Z M6.37777778,8.08888889 L9.95555556,8.08888889 L9.95555556,6.84444444 L7,6.84444444 L7,2.48888889 L5.75555556,2.48888889 L5.75555556,7.46666667 C5.75555556,7.80888889 6.03555556,8.08888889 6.37777778,8.08888889 Z" id="time" fill="#8692AD" fill-rule="nonzero"></path>
    </g>
</svg>