<?xml version="1.0" encoding="utf-8"?>
<!-- Generator: Adobe Illustrator 16.0.0, SVG Export Plug-In . SVG Version: 6.00 Build 0)  -->
<!DOCTYPE svg PUBLIC "-//W3C//DTD SVG 1.1 Tiny//EN" "http://www.w3.org/Graphics/SVG/1.1/DTD/svg11-tiny.dtd">
<svg version="1.1" baseProfile="tiny" id="Layer_1" xmlns="http://www.w3.org/2000/svg" xmlns:xlink="http://www.w3.org/1999/xlink"
	 x="0px" y="0px" width="60px" height="48px" viewBox="0 0 60 48" xml:space="preserve">
<g>
	<path fill="#8F8D8D" d="M58.724,0.2H1.276C0.71,0.2,0.25,0.663,0.25,1.234v45.53c0,0.572,0.46,1.035,1.026,1.035h57.448
		c0.566,0,1.026-0.463,1.026-1.035V1.234C59.75,0.663,59.29,0.2,58.724,0.2z M57.699,45.73H2.302V2.27h55.397V45.73z M16.664,23.108
		c3.15,0,5.712-2.584,5.712-5.762c0-3.178-2.563-5.764-5.712-5.764c-3.151,0-5.713,2.585-5.713,5.763
		C10.951,20.523,13.513,23.108,16.664,23.108z M16.664,13.652c2.019,0,3.661,1.657,3.661,3.693s-1.643,3.693-3.661,3.693
		c-2.019,0-3.662-1.657-3.662-3.692C13.002,15.312,14.645,13.652,16.664,13.652z M7.431,41.591c0.241,0,0.482-0.084,0.677-0.258
		l16.735-14.861l10.568,10.659c0.401,0.404,1.051,0.404,1.451,0s0.4-1.059,0-1.463l-4.932-4.975l9.418-10.403l11.553,10.683
		c0.417,0.386,1.067,0.356,1.448-0.065c0.384-0.421,0.355-1.075-0.063-1.461L41.978,18.063c-0.202-0.185-0.469-0.278-0.74-0.271
		c-0.271,0.013-0.527,0.134-0.71,0.336l-10.048,11.1l-4.866-4.908c-0.384-0.386-0.997-0.406-1.403-0.046L6.753,39.779
		c-0.425,0.377-0.467,1.031-0.092,1.462C6.863,41.474,7.146,41.591,7.431,41.591z"/>
</g>
</svg>
