<?xml version="1.0" encoding="utf-8"?>
<!-- Generator: Adobe Illustrator 16.0.0, SVG Export Plug-In . SVG Version: 6.00 Build 0)  -->
<!DOCTYPE svg PUBLIC "-//W3C//DTD SVG 1.1 Tiny//EN" "http://www.w3.org/Graphics/SVG/1.1/DTD/svg11-tiny.dtd">
<svg version="1.1" baseProfile="tiny" id="Layer_1" xmlns="http://www.w3.org/2000/svg" xmlns:xlink="http://www.w3.org/1999/xlink"
	 x="0px" y="0px" width="21px" height="21px" viewBox="0 0 21 21" xml:space="preserve">
<g>
	<path fill="#fff" d="M10.505,0.1c-5.744,0-10.4,4.656-10.4,10.4c0,5.743,4.656,10.4,10.4,10.4c5.743,0,10.4-4.657,10.4-10.4
		C20.905,4.756,16.248,0.1,10.505,0.1z M10.505,19.6c-5.026,0-9.1-4.073-9.1-9.1c0-5.026,4.074-9.1,9.1-9.1
		c5.026,0,9.1,4.074,9.1,9.1C19.604,15.526,15.531,19.6,10.505,19.6z M10.823,5.996c-0.181-0.169-0.475-0.169-0.655,0L6.169,9.755
		c-0.181,0.169-0.181,0.446,0,0.616c0.181,0.169,0.475,0.169,0.655,0l3.162-2.972l-0.001,7.204c0,0.2,0.233,0.363,0.521,0.363
		s0.522-0.163,0.522-0.363V7.423l3.136,2.948c0.091,0.084,0.209,0.127,0.328,0.127s0.236-0.043,0.328-0.127
		c0.181-0.17,0.181-0.447,0-0.616L10.823,5.996z"/>
</g>
</svg>
