<?xml version="1.0" encoding="utf-8"?>
<!-- Generator: Adobe Illustrator 16.0.0, SVG Export Plug-In . SVG Version: 6.00 Build 0)  -->
<!DOCTYPE svg PUBLIC "-//W3C//DTD SVG 1.1//EN" "http://www.w3.org/Graphics/SVG/1.1/DTD/svg11.dtd">
<svg version="1.1" id="Layer_1" xmlns="http://www.w3.org/2000/svg" xmlns:xlink="http://www.w3.org/1999/xlink" x="0px" y="0px"
	 width="18.708px" height="24.583px" viewBox="0 0 18.708 24.583" enable-background="new 0 0 18.708 24.583" xml:space="preserve">
<g>
	<g>
		<path fill="#FFF" d="M12.395,0.317H2.894c-1.389,0-2.518,1.146-2.518,2.554v18.891c0,1.408,1.129,2.555,2.518,2.555h12.964
			c1.387,0,2.518-1.146,2.518-2.555v-15.4L12.395,0.317z M16.375,21.317c0,0.549-0.459,1-1,1L3.366,22.315
			c-0.541,0-0.98-0.446-0.98-0.996V3.315c0-0.549,0.439-0.995,0.98-0.995l8.961-0.009v3.366c0,0.984,0.786,1.783,1.754,1.783
			l2.294-0.143V21.317z M9.025,8.409l-2.649,3.909h2v4h2v-4h2L9.724,8.409C9.532,8.212,9.218,8.212,9.025,8.409z"/>
	</g>
</g>
</svg>
