<?xml version="1.0" encoding="UTF-8"?>
<svg width="12px" height="12px" viewBox="0 0 12 12" version="1.1" xmlns="http://www.w3.org/2000/svg" xmlns:xlink="http://www.w3.org/1999/xlink">
    <!-- Generator: Sketch 46.2 (44496) - http://www.bohemiancoding.com/sketch -->
    <title>User</title>
    <desc>Created with Sketch.</desc>
    <defs></defs>
    <g id="Page-1" stroke="none" stroke-width="1" fill="none" fill-rule="evenodd">
        <path d="M7.48425,8.42688889 C7.18813393,8.37802778 7.18138393,7.53363889 7.18138393,7.53363889 C7.18138393,7.53363889 8.05149107,6.64036111 8.24113393,5.43916667 C8.75126786,5.43916667 9.066375,4.16213889 8.55613393,3.71283333 C8.57750893,3.23986111 9.211875,0 6,0 C2.78809821,0 3.42254464,3.23986111 3.44378571,3.71283333 C2.93359821,4.16213889 3.24865179,5.43916667 3.7588125,5.43916667 C3.94842857,6.64036111 4.8185625,7.53363889 4.8185625,7.53363889 C4.8185625,7.53363889 4.8118125,8.37802778 4.51569643,8.42688889 C3.56185714,8.58427778 0,10.2135 0,12 L6,12 L12,12 C12,10.2135 8.43811607,8.58427778 7.48425,8.42688889 Z" id="User" fill="#8692AD" fill-rule="nonzero"></path>
    </g>
</svg>